<svg width="100" height="100" viewBox="0 0 100 100" fill="none" xmlns="http://www.w3.org/2000/svg">
<path d="M81.25 59.375V48.4375C81.25 44.7079 79.7684 41.131 77.1312 38.4938C74.494 35.8566 70.9171 34.375 67.1875 34.375H60.9375C59.6943 34.375 58.502 33.8811 57.6229 33.0021C56.7439 32.123 56.25 30.9307 56.25 29.6875V23.4375C56.25 19.7079 54.7684 16.131 52.1312 13.4938C49.494 10.8566 45.9171 9.375 42.1875 9.375H34.375M43.75 9.375H23.4375C20.85 9.375 18.75 11.475 18.75 14.0625V85.9375C18.75 88.525 20.85 90.625 23.4375 90.625H76.5625C79.15 90.625 81.25 88.525 81.25 85.9375V46.875C81.25 36.9294 77.2991 27.3911 70.2665 20.3585C63.2339 13.3259 53.6956 9.375 43.75 9.375Z" stroke="black" stroke-width="5" stroke-linecap="round" stroke-linejoin="round"/>
<path d="M33.932 75C33.4093 75 33.008 74.776 32.728 74.328C32.448 73.88 32.42 73.404 32.644 72.9L40.512 54.112C40.792 53.4587 41.2493 53.132 41.884 53.132C42.556 53.132 43.0133 53.4587 43.256 54.112L51.152 72.956C51.3573 73.4787 51.32 73.9547 51.04 74.384C50.7787 74.7947 50.3773 75 49.836 75C49.556 75 49.2853 74.9253 49.024 74.776C48.7813 74.608 48.604 74.384 48.492 74.104L41.548 56.856H42.332L35.276 74.104C35.1453 74.4027 34.9493 74.6267 34.688 74.776C34.4453 74.9253 34.1933 75 33.932 75ZM35.416 70.184L36.536 67.776H47.512L48.632 70.184H35.416ZM59.3595 71.92C58.9488 71.92 58.6035 71.7893 58.3235 71.528C58.0622 71.248 57.9315 70.9027 57.9315 70.492V66.74H54.1795C53.7688 66.74 53.4235 66.6 53.1435 66.32C52.8822 66.04 52.7515 65.6947 52.7515 65.284C52.7515 64.8733 52.8822 64.5373 53.1435 64.276C53.4235 63.996 53.7688 63.856 54.1795 63.856H57.9315V60.104C57.9315 59.712 58.0715 59.376 58.3515 59.096C58.6502 58.816 58.9862 58.676 59.3595 58.676C59.7888 58.676 60.1342 58.816 60.3955 59.096C60.6568 59.3573 60.7875 59.6933 60.7875 60.104V63.856H64.5395C64.9315 63.856 65.2675 63.996 65.5475 64.276C65.8462 64.556 65.9955 64.892 65.9955 65.284C65.9955 65.6947 65.8462 66.04 65.5475 66.32C65.2675 66.6 64.9315 66.74 64.5395 66.74H60.7875V70.492C60.7875 70.9027 60.6568 71.248 60.3955 71.528C60.1342 71.7893 59.7888 71.92 59.3595 71.92Z" fill="black"/>
<path d="M32.728 74.328L32.304 74.593L32.728 74.328ZM32.644 72.9L33.101 73.1031L33.1052 73.0931L32.644 72.9ZM40.512 54.112L40.0524 53.915L40.0508 53.9189L40.512 54.112ZM43.256 54.112L42.7873 54.2861L42.7909 54.2957L42.7948 54.3052L43.256 54.112ZM51.152 72.956L51.6175 72.7731L51.6132 72.7628L51.152 72.956ZM51.04 74.384L50.6212 74.1108L50.6182 74.1156L51.04 74.384ZM49.024 74.776L48.7394 75.1871L48.7572 75.1994L48.7759 75.2101L49.024 74.776ZM48.492 74.104L48.9562 73.9183L48.9558 73.9173L48.492 74.104ZM41.548 56.856V56.356H40.8077L41.0842 57.0427L41.548 56.856ZM42.332 56.856L42.7948 57.0453L43.0768 56.356H42.332V56.856ZM35.276 74.104L35.7342 74.3045L35.7388 74.2933L35.276 74.104ZM34.688 74.776L34.4399 74.3419L34.4329 74.3459L34.426 74.3502L34.688 74.776ZM35.416 70.184L34.9626 69.9731L34.632 70.684H35.416V70.184ZM36.536 67.776V67.276H36.2171L36.0826 67.5651L36.536 67.776ZM47.512 67.776L47.9654 67.5651L47.8309 67.276H47.512V67.776ZM48.632 70.184V70.684H49.416L49.0854 69.9731L48.632 70.184ZM33.932 74.5C33.584 74.5 33.3418 74.3667 33.152 74.063L32.304 74.593C32.6742 75.1853 33.2347 75.5 33.932 75.5V74.5ZM33.152 74.063C32.9646 73.7631 32.9408 73.4632 33.1009 73.1031L32.1871 72.6969C31.8992 73.3448 31.9314 73.9969 32.304 74.593L33.152 74.063ZM33.1052 73.0931L40.9732 54.3051L40.0508 53.9189L32.1828 72.7069L33.1052 73.0931ZM40.9716 54.309C41.085 54.0444 41.2188 53.8816 41.3556 53.7839C41.4887 53.6888 41.6568 53.632 41.884 53.632V52.632C41.4765 52.632 41.0986 52.7386 40.7744 52.9701C40.4539 53.199 40.219 53.5263 40.0524 53.915L40.9716 54.309ZM41.884 53.632C42.1367 53.632 42.3121 53.6922 42.4404 53.7839C42.5701 53.8765 42.6923 54.0305 42.7873 54.2861L43.7247 53.9379C43.577 53.5402 43.3492 53.2041 43.0216 52.9701C42.6926 52.7351 42.3033 52.632 41.884 52.632V53.632ZM42.7948 54.3052L50.6908 73.1492L51.6132 72.7628L43.7172 53.9188L42.7948 54.3052ZM50.6866 73.1388C50.8394 73.5277 50.8034 73.8315 50.6212 74.1109L51.4588 74.6571C51.8366 74.0779 51.8753 73.4296 51.6174 72.7732L50.6866 73.1388ZM50.6182 74.1156C50.4602 74.3638 50.2291 74.5 49.836 74.5V75.5C50.5255 75.5 51.0971 75.2255 51.4618 74.6524L50.6182 74.1156ZM49.836 74.5C49.6495 74.5 49.4637 74.4514 49.2721 74.3419L48.7759 75.2101C49.107 75.3993 49.4625 75.5 49.836 75.5V74.5ZM49.3086 74.3649C49.1485 74.2541 49.0326 74.1093 48.9562 73.9183L48.0278 74.2897C48.1754 74.6587 48.4142 74.9619 48.7394 75.1871L49.3086 74.3649ZM48.9558 73.9173L42.0118 56.6693L41.0842 57.0427L48.0282 74.2907L48.9558 73.9173ZM41.548 57.356H42.332V56.356H41.548V57.356ZM41.8692 56.6667L34.8132 73.9147L35.7388 74.2933L42.7948 57.0453L41.8692 56.6667ZM34.8179 73.9036C34.7265 74.1125 34.6001 74.2504 34.4399 74.3419L34.9361 75.2101C35.2986 75.003 35.5641 74.6929 35.7341 74.3044L34.8179 73.9036ZM34.426 74.3502C34.2547 74.4555 34.0925 74.5 33.932 74.5V75.5C34.2942 75.5 34.6359 75.3951 34.95 75.2018L34.426 74.3502ZM35.8694 70.3949L36.9894 67.9869L36.0826 67.5651L34.9626 69.9731L35.8694 70.3949ZM36.536 68.276H47.512V67.276H36.536V68.276ZM47.0586 67.9869L48.1786 70.3949L49.0854 69.9731L47.9654 67.5651L47.0586 67.9869ZM48.632 69.684H35.416V70.684H48.632V69.684ZM58.3235 71.528L57.958 71.8692L57.9697 71.8818L57.9823 71.8935L58.3235 71.528ZM57.9315 66.74H58.4315V66.24H57.9315V66.74ZM53.1435 66.32L52.778 66.6612L52.7839 66.6675L52.7899 66.6736L53.1435 66.32ZM53.1435 64.276L53.4971 64.6296L53.1435 64.276ZM57.9315 63.856V64.356H58.4315V63.856H57.9315ZM58.3515 59.096L58.0095 58.7312L58.0036 58.7367L57.9979 58.7424L58.3515 59.096ZM60.3955 59.096L60.03 59.4372L60.0359 59.4435L60.0419 59.4496L60.3955 59.096ZM60.7875 63.856H60.2875V64.356H60.7875V63.856ZM65.5475 64.276L65.1939 64.6296L65.1996 64.6353L65.2055 64.6408L65.5475 64.276ZM65.5475 66.32L65.2055 65.9552L65.1996 65.9607L65.1939 65.9664L65.5475 66.32ZM60.7875 66.74V66.24H60.2875V66.74H60.7875ZM60.3955 71.528L60.7491 71.8816L60.7551 71.8755L60.761 71.8692L60.3955 71.528ZM59.3595 71.42C59.0655 71.42 58.845 71.3308 58.6647 71.1625L57.9823 71.8935C58.362 72.2479 58.8322 72.42 59.3595 72.42V71.42ZM58.689 71.1868C58.5207 71.0065 58.4315 70.786 58.4315 70.492H57.4315C57.4315 71.0193 57.6036 71.4895 57.958 71.8692L58.689 71.1868ZM58.4315 70.492V66.74H57.4315V70.492H58.4315ZM57.9315 66.24H54.1795V67.24H57.9315V66.24ZM54.1795 66.24C53.896 66.24 53.6795 66.1489 53.4971 65.9664L52.7899 66.6736C53.1675 67.0511 53.6417 67.24 54.1795 67.24V66.24ZM53.509 65.9788C53.3407 65.7985 53.2515 65.578 53.2515 65.284H52.2515C52.2515 65.8113 52.4236 66.2815 52.778 66.6612L53.509 65.9788ZM53.2515 65.284C53.2515 64.9898 53.3403 64.7863 53.4971 64.6296L52.7899 63.9224C52.424 64.2884 52.2515 64.7569 52.2515 65.284H53.2515ZM53.4971 64.6296C53.6795 64.4471 53.896 64.356 54.1795 64.356V63.356C53.6417 63.356 53.1675 63.5449 52.7899 63.9224L53.4971 64.6296ZM54.1795 64.356H57.9315V63.356H54.1795V64.356ZM58.4315 63.856V60.104H57.4315V63.856H58.4315ZM58.4315 60.104C58.4315 59.8461 58.5178 59.6369 58.7051 59.4496L57.9979 58.7424C57.6252 59.1151 57.4315 59.5779 57.4315 60.104H58.4315ZM58.6935 59.4608C58.9092 59.2585 59.126 59.176 59.3595 59.176V58.176C58.8464 58.176 58.3911 58.3735 58.0095 58.7312L58.6935 59.4608ZM59.3595 59.176C59.6688 59.176 59.8751 59.2713 60.03 59.4372L60.761 58.7548C60.3932 58.3607 59.9089 58.176 59.3595 58.176V59.176ZM60.0419 59.4496C60.1987 59.6063 60.2875 59.8098 60.2875 60.104H61.2875C61.2875 59.5769 61.115 59.1084 60.7491 58.7424L60.0419 59.4496ZM60.2875 60.104V63.856H61.2875V60.104H60.2875ZM60.7875 64.356H64.5395V63.356H60.7875V64.356ZM64.5395 64.356C64.7974 64.356 65.0066 64.4423 65.1939 64.6296L65.9011 63.9224C65.5284 63.5497 65.0656 63.356 64.5395 63.356V64.356ZM65.2055 64.6408C65.4084 64.831 65.4955 65.037 65.4955 65.284H66.4955C66.4955 64.747 66.2839 64.281 65.8895 63.9112L65.2055 64.6408ZM65.4955 65.284C65.4955 65.557 65.403 65.7701 65.2055 65.9552L65.8895 66.6848C66.2893 66.3099 66.4955 65.8324 66.4955 65.284H65.4955ZM65.1939 65.9664C65.0066 66.1537 64.7974 66.24 64.5395 66.24V67.24C65.0656 67.24 65.5284 67.0463 65.9011 66.6736L65.1939 65.9664ZM64.5395 66.24H60.7875V67.24H64.5395V66.24ZM60.2875 66.74V70.492H61.2875V66.74H60.2875ZM60.2875 70.492C60.2875 70.786 60.1983 71.0065 60.03 71.1868L60.761 71.8692C61.1154 71.4895 61.2875 71.0193 61.2875 70.492H60.2875ZM60.0419 71.1744C59.8896 71.3268 59.6794 71.42 59.3595 71.42V72.42C59.8983 72.42 60.3787 72.2519 60.7491 71.8816L60.0419 71.1744Z" fill="black"/>
</svg>
