<svg width="100" height="100" viewBox="0 0 100 100" fill="none" xmlns="http://www.w3.org/2000/svg">
<path d="M81.25 59.375V48.4375C81.25 44.7079 79.7684 41.131 77.1312 38.4938C74.494 35.8566 70.9171 34.375 67.1875 34.375H60.9375C59.6943 34.375 58.502 33.8811 57.6229 33.0021C56.7439 32.123 56.25 30.9307 56.25 29.6875V23.4375C56.25 19.7079 54.7684 16.131 52.1312 13.4938C49.494 10.8566 45.9171 9.375 42.1875 9.375H34.375M43.75 9.375H23.4375C20.85 9.375 18.75 11.475 18.75 14.0625V85.9375C18.75 88.525 20.85 90.625 23.4375 90.625H76.5625C79.15 90.625 81.25 88.525 81.25 85.9375V46.875C81.25 36.9294 77.2991 27.3911 70.2665 20.3585C63.2339 13.3259 53.6956 9.375 43.75 9.375Z" stroke="black" stroke-width="5" stroke-linecap="round" stroke-linejoin="round"/>
<g clip-path="url(#clip0_2004_2946)">
<path d="M63.6618 83.846L63.3732 81.8669L63.6619 83.846L70.5702 82.8382C70.5729 82.8378 70.5756 82.8374 70.5783 82.837C71.9889 82.6406 73.2986 81.9937 74.3121 80.9922L74.3121 80.9922L74.3197 80.9846L93.9388 61.3855L93.9424 61.3819L93.9443 61.3801L93.9448 61.3796L93.945 61.3793C94.7464 60.5837 95.3305 59.5959 95.6415 58.5103L93.7189 57.9594L95.6415 58.5103C95.9535 57.4218 95.9805 56.2713 95.7199 55.1693L95.7199 55.1692C95.7088 55.1223 95.6969 55.0755 95.6843 55.029C94.9911 52.468 93.6245 50.14 91.7274 48.2867C89.8867 46.3843 87.5704 45.0081 85.0182 44.3013L84.4847 46.2278L85.0182 44.3013C84.9633 44.2861 84.9082 44.272 84.8528 44.2589C83.7508 43.9983 82.6003 44.0253 81.5118 44.3372C80.4261 44.6483 79.4383 45.2325 78.6426 46.0338L78.6423 46.0342L78.6422 46.0343L78.6358 46.0407L59.0482 65.655L59.0466 65.6565L59.0433 65.6599L59.0422 65.661C58.0273 66.6811 57.3825 67.9966 57.1855 69.4008L56.1834 76.2721C56.0219 77.2886 56.1002 78.3289 56.412 79.3101C56.7266 80.2995 57.2699 81.2009 57.9979 81.9411C58.7259 82.6813 59.6181 83.2396 60.6022 83.5705C61.5863 83.9015 62.6345 83.9959 63.6618 83.846ZM65.9821 71.4482L78.1178 59.2959L80.7057 61.8838L68.5376 74.0395L65.5404 74.4767L65.9821 71.4482Z" fill="black" stroke="#FBF6FF" stroke-width="4" stroke-linecap="round" stroke-linejoin="round"/>
</g>
<defs>
<clipPath id="clip0_2004_2946">
<rect width="40" height="40" fill="white" transform="translate(56 44)"/>
</clipPath>
</defs>
</svg>
