<svg width="485" height="67" viewBox="0 0 485 67" fill="none" xmlns="http://www.w3.org/2000/svg">
<path d="M16.46 45.81C15.68 44.9033 15.0133 43.8767 14.46 42.73C13.9067 41.59 13.4867 40.3933 13.2 39.14C12.9133 37.8867 12.78 36.64 12.8 35.4C12.78 34.16 12.9133 32.9133 13.2 31.66C13.4867 30.4 13.9067 29.2 14.46 28.06C15.0133 26.92 15.68 25.8967 16.46 24.99L18.24 26.31C17.44 27.2767 16.8 28.2533 16.32 29.24C15.8467 30.2267 15.5067 31.2333 15.3 32.26C15.0933 33.28 14.9867 34.3267 14.98 35.4C14.9867 36.4733 15.0933 37.5233 15.3 38.55C15.5133 39.57 15.8567 40.5767 16.33 41.57C16.8033 42.5567 17.44 43.5267 18.24 44.48L16.46 45.81Z" fill="white"/>
<path d="M6.46 45.81C5.68 44.9033 5.01333 43.8767 4.46 42.73C3.90667 41.59 3.48667 40.3933 3.2 39.14C2.91333 37.8867 2.78 36.64 2.8 35.4C2.78 34.16 2.91333 32.9133 3.2 31.66C3.48667 30.4 3.90667 29.2 4.46 28.06C5.01333 26.92 5.68 25.8967 6.46 24.99L8.24 26.31C7.44 27.2767 6.8 28.2533 6.32 29.24C5.84667 30.2267 5.50667 31.2333 5.3 32.26C5.09333 33.28 4.98667 34.3267 4.98 35.4C4.98667 36.4733 5.09333 37.5233 5.3 38.55C5.51333 39.57 5.85667 40.5767 6.33 41.57C6.80333 42.5567 7.44 43.5267 8.24 44.48L6.46 45.81Z" fill="white"/>
<path d="M377.6 45.81L375.82 44.48C376.62 43.5267 377.257 42.5567 377.73 41.57C378.203 40.5767 378.543 39.57 378.75 38.55C378.963 37.5233 379.073 36.4733 379.08 35.4C379.073 34.3267 378.967 33.28 378.76 32.26C378.553 31.2333 378.21 30.2267 377.73 29.24C377.257 28.2533 376.62 27.2767 375.82 26.31L377.6 24.99C378.38 25.8967 379.047 26.92 379.6 28.06C380.153 29.2 380.573 30.4 380.86 31.66C381.147 32.9133 381.28 34.16 381.26 35.4C381.28 36.64 381.147 37.8867 380.86 39.14C380.573 40.3933 380.153 41.59 379.6 42.73C379.047 43.8767 378.38 44.9033 377.6 45.81ZM410.986 42.3C409.546 42.3 408.313 41.9867 407.286 41.36C406.259 40.7267 405.469 39.8467 404.916 38.72C404.369 37.5933 404.096 36.2867 404.096 34.8C404.096 33.3133 404.369 32.0067 404.916 30.88C405.469 29.7533 406.259 28.8767 407.286 28.25C408.313 27.6167 409.546 27.3 410.986 27.3C412.426 27.3 413.659 27.6167 414.686 28.25C415.719 28.8767 416.509 29.7533 417.056 30.88C417.609 32.0067 417.886 33.3133 417.886 34.8C417.886 36.2867 417.609 37.5933 417.056 38.72C416.509 39.8467 415.719 40.7267 414.686 41.36C413.659 41.9867 412.426 42.3 410.986 42.3ZM410.986 40.03C411.953 40.0367 412.756 39.8233 413.396 39.39C414.043 38.9567 414.526 38.3467 414.846 37.56C415.173 36.7733 415.336 35.8533 415.336 34.8C415.336 33.7467 415.173 32.8333 414.846 32.06C414.526 31.28 414.043 30.6733 413.396 30.24C412.756 29.8067 411.953 29.5833 410.986 29.57C410.019 29.5633 409.216 29.7767 408.576 30.21C407.936 30.6433 407.453 31.2533 407.126 32.04C406.806 32.8267 406.646 33.7467 406.646 34.8C406.646 35.8533 406.806 36.77 407.126 37.55C407.446 38.3233 407.926 38.9267 408.566 39.36C409.213 39.7933 410.019 40.0167 410.986 40.03ZM420.78 42L422.68 38.12L417.71 27.6H420.43L423.94 35.58L427.56 27.6H430.13L423.35 42H420.78ZM436.018 45.81L434.238 44.48C435.038 43.5267 435.675 42.5567 436.148 41.57C436.621 40.5767 436.961 39.57 437.168 38.55C437.381 37.5233 437.491 36.4733 437.498 35.4C437.491 34.3267 437.385 33.28 437.178 32.26C436.971 31.2333 436.628 30.2267 436.148 29.24C435.675 28.2533 435.038 27.2767 434.238 26.31L436.018 24.99C436.798 25.8967 437.465 26.92 438.018 28.06C438.571 29.2 438.991 30.4 439.278 31.66C439.565 32.9133 439.698 34.16 439.678 35.4C439.698 36.64 439.565 37.8867 439.278 39.14C438.991 40.3933 438.571 41.59 438.018 42.73C437.465 43.8767 436.798 44.9033 436.018 45.81ZM462.025 42V27.6H471.325V29.86H464.435V42H462.025ZM472.923 42V27.6H475.333V34.28L481.083 27.6H484.043L477.853 34.66L484.463 42H481.403L475.333 35.28V42H472.923Z" fill="white"/>
<path d="M392.846 39.32V35.74H389.266V33.85H392.846V30.28H394.736V33.85H398.296V35.74H394.736V39.32H392.846ZM454.084 38.66L451.554 36.12L449.014 38.66L447.684 37.32L450.214 34.79L447.694 32.27L449.034 30.94L451.554 33.45L454.074 30.94L455.404 32.27L452.884 34.79L455.414 37.32L454.084 38.66Z" fill="#A431FF"/>
<path d="M35.6441 21V6.6H38.0541V13.28L43.8041 6.6H46.7641L40.5741 13.66L47.1841 21H44.1241L38.0541 14.28V21H35.6441ZM51.0934 21V9.23L48.3934 10.88V8.22L51.0934 6.6H53.5534V21H51.0934ZM75.5074 21V6.6H87.1774V21H84.7674V8.86H77.9174V21H75.5074ZM92.4801 21V9.23L89.7801 10.88V8.22L92.4801 6.6H94.9401V21H92.4801ZM118.183 21V6.6H120.593V13.28L126.343 6.6H129.303L123.113 13.66L129.723 21H126.663L120.593 14.28V21H118.183ZM130.732 20.98V18.88L136.892 13.39C137.372 12.9633 137.706 12.56 137.892 12.18C138.079 11.8 138.172 11.4333 138.172 11.08C138.172 10.6 138.069 10.1733 137.862 9.8C137.656 9.42 137.369 9.12 137.002 8.9C136.642 8.68 136.226 8.57 135.752 8.57C135.252 8.57 134.809 8.68667 134.422 8.92C134.042 9.14667 133.746 9.45 133.532 9.83C133.319 10.21 133.219 10.62 133.232 11.06H130.752C130.752 10.1 130.966 9.26333 131.392 8.55C131.826 7.83667 132.419 7.28333 133.172 6.89C133.932 6.49667 134.809 6.3 135.802 6.3C136.722 6.3 137.549 6.50667 138.282 6.92C139.016 7.32667 139.592 7.89333 140.012 8.62C140.432 9.34 140.642 10.17 140.642 11.11C140.642 11.7967 140.549 12.3733 140.362 12.84C140.176 13.3067 139.896 13.7367 139.522 14.13C139.156 14.5233 138.699 14.96 138.152 15.44L133.782 19.31L133.562 18.71H140.642V20.98H130.732ZM161.191 21V6.6H172.861V21H170.451V8.86H163.601V21H161.191ZM175.264 20.98V18.88L181.424 13.39C181.904 12.9633 182.237 12.56 182.424 12.18C182.61 11.8 182.704 11.4333 182.704 11.08C182.704 10.6 182.6 10.1733 182.394 9.8C182.187 9.42 181.9 9.12 181.534 8.9C181.174 8.68 180.757 8.57 180.284 8.57C179.784 8.57 179.34 8.68667 178.954 8.92C178.574 9.14667 178.277 9.45 178.064 9.83C177.85 10.21 177.75 10.62 177.764 11.06H175.284C175.284 10.1 175.497 9.26333 175.924 8.55C176.357 7.83667 176.95 7.28333 177.704 6.89C178.464 6.49667 179.34 6.3 180.334 6.3C181.254 6.3 182.08 6.50667 182.814 6.92C183.547 7.32667 184.124 7.89333 184.544 8.62C184.964 9.34 185.174 10.17 185.174 11.11C185.174 11.7967 185.08 12.3733 184.894 12.84C184.707 13.3067 184.427 13.7367 184.054 14.13C183.687 14.5233 183.23 14.96 182.684 15.44L178.314 19.31L178.094 18.71H185.174V20.98H175.264ZM207.011 21V6.6H209.421V13.28L215.171 6.6H218.131L211.941 13.66L218.551 21H215.491L209.421 14.28V21H207.011ZM224.081 21.27C223.361 21.27 222.681 21.13 222.041 20.85C221.401 20.57 220.844 20.1733 220.371 19.66C219.904 19.1467 219.567 18.54 219.361 17.84L221.691 17.21C221.857 17.7833 222.161 18.2267 222.601 18.54C223.047 18.8467 223.537 18.9967 224.071 18.99C224.544 18.99 224.967 18.88 225.341 18.66C225.714 18.44 226.007 18.1433 226.221 17.77C226.434 17.39 226.541 16.9667 226.541 16.5C226.541 15.7867 226.311 15.19 225.851 14.71C225.391 14.23 224.797 13.99 224.071 13.99C223.851 13.99 223.634 14.02 223.421 14.08C223.214 14.14 223.014 14.2233 222.821 14.33L221.721 12.43L226.561 8.29L226.771 8.87H219.921V6.6H228.751V8.88L224.861 12.62L224.841 11.91C225.714 11.97 226.457 12.2133 227.071 12.64C227.691 13.0667 228.164 13.6167 228.491 14.29C228.824 14.9633 228.991 15.7 228.991 16.5C228.991 17.4067 228.767 18.22 228.321 18.94C227.881 19.66 227.287 20.23 226.541 20.65C225.801 21.0633 224.981 21.27 224.081 21.27ZM249.726 21V6.6H261.396V21H258.986V8.86H252.136V21H249.726ZM268.319 21.27C267.599 21.27 266.919 21.13 266.279 20.85C265.639 20.57 265.082 20.1733 264.609 19.66C264.142 19.1467 263.805 18.54 263.599 17.84L265.929 17.21C266.095 17.7833 266.399 18.2267 266.839 18.54C267.285 18.8467 267.775 18.9967 268.309 18.99C268.782 18.99 269.205 18.88 269.579 18.66C269.952 18.44 270.245 18.1433 270.459 17.77C270.672 17.39 270.779 16.9667 270.779 16.5C270.779 15.7867 270.549 15.19 270.089 14.71C269.629 14.23 269.035 13.99 268.309 13.99C268.089 13.99 267.872 14.02 267.659 14.08C267.452 14.14 267.252 14.2233 267.059 14.33L265.959 12.43L270.799 8.29L271.009 8.87H264.159V6.6H272.989V8.88L269.099 12.62L269.079 11.91C269.952 11.97 270.695 12.2133 271.309 12.64C271.929 13.0667 272.402 13.6167 272.729 14.29C273.062 14.9633 273.229 15.7 273.229 16.5C273.229 17.4067 273.005 18.22 272.559 18.94C272.119 19.66 271.525 20.23 270.779 20.65C270.039 21.0633 269.219 21.27 268.319 21.27ZM295.254 21V6.6H297.664V13.28L303.414 6.6H306.374L300.184 13.66L306.794 21H303.734L297.664 14.28V21H295.254ZM314.183 21V18.62H307.803V16.37L312.413 6.6H315.163L310.553 16.37H314.183V12.62H316.623V16.37H317.973V18.62H316.623V21H314.183ZM338.515 21V6.6H350.185V21H347.775V8.86H340.925V21H338.515ZM358.968 21V18.62H352.588V16.37L357.198 6.6H359.948L355.338 16.37H358.968V12.62H361.408V16.37H362.758V18.62H361.408V21H358.968Z" fill="white"/>
<path d="M67.5668 17.66L65.0368 15.12L62.4968 17.66L61.1668 16.32L63.6968 13.79L61.1768 11.27L62.5168 9.94L65.0368 12.45L67.5568 9.94L68.8868 11.27L66.3668 13.79L68.8968 16.32L67.5668 17.66ZM106.134 18.32V14.74H102.554V12.85H106.134V9.28H108.024V12.85H111.584V14.74H108.024V18.32H106.134ZM153.25 17.66L150.72 15.12L148.18 17.66L146.85 16.32L149.38 13.79L146.86 11.27L148.2 9.94L150.72 12.45L153.24 9.94L154.57 11.27L152.05 13.79L154.58 16.32L153.25 17.66ZM194.962 18.32V14.74H191.382V12.85H194.962V9.28H196.852V12.85H200.412V14.74H196.852V18.32H194.962ZM241.786 17.66L239.256 15.12L236.716 17.66L235.386 16.32L237.916 13.79L235.396 11.27L236.736 9.94L239.256 12.45L241.776 9.94L243.106 11.27L240.586 13.79L243.116 16.32L241.786 17.66ZM283.204 18.32V14.74H279.624V12.85H283.204V9.28H285.094V12.85H288.654V14.74H285.094V18.32H283.204ZM330.575 17.66L328.045 15.12L325.505 17.66L324.175 16.32L326.705 13.79L324.185 11.27L325.525 9.94L328.045 12.45L330.565 9.94L331.895 11.27L329.375 13.79L331.905 16.32L330.575 17.66Z" fill="#A431FF"/>
<path d="M120.615 61V46.6H123.025V53.28L128.775 46.6H131.735L125.545 53.66L132.155 61H129.095L123.025 54.28V61H120.615ZM136.064 61V49.23L133.364 50.88V48.22L136.064 46.6H138.524V61H136.064ZM161.767 61V46.6H164.177V53.28L169.927 46.6H172.887L166.697 53.66L173.307 61H170.247L164.177 54.28V61H161.767ZM174.316 60.98V58.88L180.476 53.39C180.956 52.9633 181.29 52.56 181.476 52.18C181.663 51.8 181.756 51.4333 181.756 51.08C181.756 50.6 181.653 50.1733 181.446 49.8C181.24 49.42 180.953 49.12 180.586 48.9C180.226 48.68 179.81 48.57 179.336 48.57C178.836 48.57 178.393 48.6867 178.006 48.92C177.626 49.1467 177.33 49.45 177.116 49.83C176.903 50.21 176.803 50.62 176.816 51.06H174.336C174.336 50.1 174.55 49.2633 174.976 48.55C175.41 47.8367 176.003 47.2833 176.756 46.89C177.516 46.4967 178.393 46.3 179.386 46.3C180.306 46.3 181.133 46.5067 181.866 46.92C182.6 47.3267 183.176 47.8933 183.596 48.62C184.016 49.34 184.226 50.17 184.226 51.11C184.226 51.7967 184.133 52.3733 183.946 52.84C183.76 53.3067 183.48 53.7367 183.106 54.13C182.74 54.5233 182.283 54.96 181.736 55.44L177.366 59.31L177.146 58.71H184.226V60.98H174.316ZM206.064 61V46.6H208.474V53.28L214.224 46.6H217.184L210.994 53.66L217.604 61H214.544L208.474 54.28V61H206.064ZM223.133 61.27C222.413 61.27 221.733 61.13 221.093 60.85C220.453 60.57 219.897 60.1733 219.423 59.66C218.957 59.1467 218.62 58.54 218.413 57.84L220.743 57.21C220.91 57.7833 221.213 58.2267 221.653 58.54C222.1 58.8467 222.59 58.9967 223.123 58.99C223.597 58.99 224.02 58.88 224.393 58.66C224.767 58.44 225.06 58.1433 225.273 57.77C225.487 57.39 225.593 56.9667 225.593 56.5C225.593 55.7867 225.363 55.19 224.903 54.71C224.443 54.23 223.85 53.99 223.123 53.99C222.903 53.99 222.687 54.02 222.473 54.08C222.267 54.14 222.067 54.2233 221.873 54.33L220.773 52.43L225.613 48.29L225.823 48.87H218.973V46.6H227.803V48.88L223.913 52.62L223.893 51.91C224.767 51.97 225.51 52.2133 226.123 52.64C226.743 53.0667 227.217 53.6167 227.543 54.29C227.877 54.9633 228.043 55.7 228.043 56.5C228.043 57.4067 227.82 58.22 227.373 58.94C226.933 59.66 226.34 60.23 225.593 60.65C224.853 61.0633 224.033 61.27 223.133 61.27ZM250.068 61V46.6H252.478V53.28L258.228 46.6H261.188L254.998 53.66L261.608 61H258.548L252.478 54.28V61H250.068ZM268.997 61V58.62H262.617V56.37L267.227 46.6H269.977L265.367 56.37H268.997V52.62H271.437V56.37H272.787V58.62H271.437V61H268.997Z" fill="white"/>
<path d="M149.718 58.32V54.74H146.138V52.85H149.718V49.28H151.608V52.85H155.168V54.74H151.608V58.32H149.718ZM194.014 58.32V54.74H190.434V52.85H194.014V49.28H195.904V52.85H199.464V54.74H195.904V58.32H194.014ZM238.018 58.32V54.74H234.438V52.85H238.018V49.28H239.908V52.85H243.468V54.74H239.908V58.32H238.018Z" fill="#A431FF"/>
<rect x="32" y="35" width="331" height="1" fill="#A431FF"/>
</svg>
