<svg width="475" height="67" viewBox="0 0 475 67" fill="none" xmlns="http://www.w3.org/2000/svg">
<path d="M6.46 45.81C5.68 44.9033 5.01333 43.8767 4.46 42.73C3.90667 41.59 3.48667 40.3933 3.2 39.14C2.91333 37.8867 2.78 36.64 2.8 35.4C2.78 34.16 2.91333 32.9133 3.2 31.66C3.48667 30.4 3.90667 29.2 4.46 28.06C5.01333 26.92 5.68 25.8967 6.46 24.99L8.24 26.31C7.44 27.2767 6.8 28.2533 6.32 29.24C5.84667 30.2267 5.50667 31.2333 5.3 32.26C5.09333 33.28 4.98667 34.3267 4.98 35.4C4.98667 36.4733 5.09333 37.5233 5.3 38.55C5.51333 39.57 5.85667 40.5767 6.33 41.57C6.80333 42.5567 7.44 43.5267 8.24 44.48L6.46 45.81Z" fill="white"/>
<path d="M367.6 45.81L365.82 44.48C366.62 43.5267 367.257 42.5567 367.73 41.57C368.203 40.5767 368.543 39.57 368.75 38.55C368.963 37.5233 369.073 36.4733 369.08 35.4C369.073 34.3267 368.967 33.28 368.76 32.26C368.553 31.2333 368.21 30.2267 367.73 29.24C367.257 28.2533 366.62 27.2767 365.82 26.31L367.6 24.99C368.38 25.8967 369.047 26.92 369.6 28.06C370.153 29.2 370.573 30.4 370.86 31.66C371.147 32.9133 371.28 34.16 371.26 35.4C371.28 36.64 371.147 37.8867 370.86 39.14C370.573 40.3933 370.153 41.59 369.6 42.73C369.047 43.8767 368.38 44.9033 367.6 45.81ZM400.986 42.3C399.546 42.3 398.313 41.9867 397.286 41.36C396.259 40.7267 395.469 39.8467 394.916 38.72C394.369 37.5933 394.096 36.2867 394.096 34.8C394.096 33.3133 394.369 32.0067 394.916 30.88C395.469 29.7533 396.259 28.8767 397.286 28.25C398.313 27.6167 399.546 27.3 400.986 27.3C402.426 27.3 403.659 27.6167 404.686 28.25C405.719 28.8767 406.509 29.7533 407.056 30.88C407.609 32.0067 407.886 33.3133 407.886 34.8C407.886 36.2867 407.609 37.5933 407.056 38.72C406.509 39.8467 405.719 40.7267 404.686 41.36C403.659 41.9867 402.426 42.3 400.986 42.3ZM400.986 40.03C401.953 40.0367 402.756 39.8233 403.396 39.39C404.043 38.9567 404.526 38.3467 404.846 37.56C405.173 36.7733 405.336 35.8533 405.336 34.8C405.336 33.7467 405.173 32.8333 404.846 32.06C404.526 31.28 404.043 30.6733 403.396 30.24C402.756 29.8067 401.953 29.5833 400.986 29.57C400.019 29.5633 399.216 29.7767 398.576 30.21C397.936 30.6433 397.453 31.2533 397.126 32.04C396.806 32.8267 396.646 33.7467 396.646 34.8C396.646 35.8533 396.806 36.77 397.126 37.55C397.446 38.3233 397.926 38.9267 398.566 39.36C399.213 39.7933 400.019 40.0167 400.986 40.03ZM410.78 42L412.68 38.12L407.71 27.6H410.43L413.94 35.58L417.56 27.6H420.13L413.35 42H410.78ZM426.018 45.81L424.238 44.48C425.038 43.5267 425.675 42.5567 426.148 41.57C426.621 40.5767 426.961 39.57 427.168 38.55C427.381 37.5233 427.491 36.4733 427.498 35.4C427.491 34.3267 427.385 33.28 427.178 32.26C426.971 31.2333 426.628 30.2267 426.148 29.24C425.675 28.2533 425.038 27.2767 424.238 26.31L426.018 24.99C426.798 25.8967 427.465 26.92 428.018 28.06C428.571 29.2 428.991 30.4 429.278 31.66C429.565 32.9133 429.698 34.16 429.678 35.4C429.698 36.64 429.565 37.8867 429.278 39.14C428.991 40.3933 428.571 41.59 428.018 42.73C427.465 43.8767 426.798 44.9033 426.018 45.81ZM452.025 42V27.6H461.325V29.86H454.435V42H452.025ZM462.923 42V27.6H465.333V34.28L471.083 27.6H474.043L467.853 34.66L474.463 42H471.403L465.333 35.28V42H462.923Z" fill="white"/>
<path d="M382.846 39.32V35.74H379.266V33.85H382.846V30.28H384.736V33.85H388.296V35.74H384.736V39.32H382.846ZM444.084 38.66L441.554 36.12L439.014 38.66L437.684 37.32L440.214 34.79L437.694 32.27L439.034 30.94L441.554 33.45L444.074 30.94L445.404 32.27L442.884 34.79L445.414 37.32L444.084 38.66Z" fill="#A431FF"/>
<path d="M25.6441 21V6.6H28.0541V13.28L33.8041 6.6H36.7641L30.5741 13.66L37.1841 21H34.1241L28.0541 14.28V21H25.6441ZM41.0934 21V9.23L38.3934 10.88V8.22L41.0934 6.6H43.5534V21H41.0934ZM65.5074 21V6.6H77.1774V21H74.7674V8.86H67.9174V21H65.5074ZM82.4801 21V9.23L79.7801 10.88V8.22L82.4801 6.6H84.9401V21H82.4801ZM108.183 21V6.6H110.593V13.28L116.343 6.6H119.303L113.113 13.66L119.723 21H116.663L110.593 14.28V21H108.183ZM120.732 20.98V18.88L126.892 13.39C127.372 12.9633 127.706 12.56 127.892 12.18C128.079 11.8 128.172 11.4333 128.172 11.08C128.172 10.6 128.069 10.1733 127.862 9.8C127.656 9.42 127.369 9.12 127.002 8.9C126.642 8.68 126.226 8.57 125.752 8.57C125.252 8.57 124.809 8.68667 124.422 8.92C124.042 9.14667 123.746 9.45 123.532 9.83C123.319 10.21 123.219 10.62 123.232 11.06H120.752C120.752 10.1 120.966 9.26333 121.392 8.55C121.826 7.83667 122.419 7.28333 123.172 6.89C123.932 6.49667 124.809 6.3 125.802 6.3C126.722 6.3 127.549 6.50667 128.282 6.92C129.016 7.32667 129.592 7.89333 130.012 8.62C130.432 9.34 130.642 10.17 130.642 11.11C130.642 11.7967 130.549 12.3733 130.362 12.84C130.176 13.3067 129.896 13.7367 129.522 14.13C129.156 14.5233 128.699 14.96 128.152 15.44L123.782 19.31L123.562 18.71H130.642V20.98H120.732ZM151.191 21V6.6H162.861V21H160.451V8.86H153.601V21H151.191ZM165.264 20.98V18.88L171.424 13.39C171.904 12.9633 172.237 12.56 172.424 12.18C172.61 11.8 172.704 11.4333 172.704 11.08C172.704 10.6 172.6 10.1733 172.394 9.8C172.187 9.42 171.9 9.12 171.534 8.9C171.174 8.68 170.757 8.57 170.284 8.57C169.784 8.57 169.34 8.68667 168.954 8.92C168.574 9.14667 168.277 9.45 168.064 9.83C167.85 10.21 167.75 10.62 167.764 11.06H165.284C165.284 10.1 165.497 9.26333 165.924 8.55C166.357 7.83667 166.95 7.28333 167.704 6.89C168.464 6.49667 169.34 6.3 170.334 6.3C171.254 6.3 172.08 6.50667 172.814 6.92C173.547 7.32667 174.124 7.89333 174.544 8.62C174.964 9.34 175.174 10.17 175.174 11.11C175.174 11.7967 175.08 12.3733 174.894 12.84C174.707 13.3067 174.427 13.7367 174.054 14.13C173.687 14.5233 173.23 14.96 172.684 15.44L168.314 19.31L168.094 18.71H175.174V20.98H165.264ZM197.011 21V6.6H199.421V13.28L205.171 6.6H208.131L201.941 13.66L208.551 21H205.491L199.421 14.28V21H197.011ZM214.081 21.27C213.361 21.27 212.681 21.13 212.041 20.85C211.401 20.57 210.844 20.1733 210.371 19.66C209.904 19.1467 209.567 18.54 209.361 17.84L211.691 17.21C211.857 17.7833 212.161 18.2267 212.601 18.54C213.047 18.8467 213.537 18.9967 214.071 18.99C214.544 18.99 214.967 18.88 215.341 18.66C215.714 18.44 216.007 18.1433 216.221 17.77C216.434 17.39 216.541 16.9667 216.541 16.5C216.541 15.7867 216.311 15.19 215.851 14.71C215.391 14.23 214.797 13.99 214.071 13.99C213.851 13.99 213.634 14.02 213.421 14.08C213.214 14.14 213.014 14.2233 212.821 14.33L211.721 12.43L216.561 8.29L216.771 8.87H209.921V6.6H218.751V8.88L214.861 12.62L214.841 11.91C215.714 11.97 216.457 12.2133 217.071 12.64C217.691 13.0667 218.164 13.6167 218.491 14.29C218.824 14.9633 218.991 15.7 218.991 16.5C218.991 17.4067 218.767 18.22 218.321 18.94C217.881 19.66 217.287 20.23 216.541 20.65C215.801 21.0633 214.981 21.27 214.081 21.27ZM239.726 21V6.6H251.396V21H248.986V8.86H242.136V21H239.726ZM258.319 21.27C257.599 21.27 256.919 21.13 256.279 20.85C255.639 20.57 255.082 20.1733 254.609 19.66C254.142 19.1467 253.805 18.54 253.599 17.84L255.929 17.21C256.095 17.7833 256.399 18.2267 256.839 18.54C257.285 18.8467 257.775 18.9967 258.309 18.99C258.782 18.99 259.205 18.88 259.579 18.66C259.952 18.44 260.245 18.1433 260.459 17.77C260.672 17.39 260.779 16.9667 260.779 16.5C260.779 15.7867 260.549 15.19 260.089 14.71C259.629 14.23 259.035 13.99 258.309 13.99C258.089 13.99 257.872 14.02 257.659 14.08C257.452 14.14 257.252 14.2233 257.059 14.33L255.959 12.43L260.799 8.29L261.009 8.87H254.159V6.6H262.989V8.88L259.099 12.62L259.079 11.91C259.952 11.97 260.695 12.2133 261.309 12.64C261.929 13.0667 262.402 13.6167 262.729 14.29C263.062 14.9633 263.229 15.7 263.229 16.5C263.229 17.4067 263.005 18.22 262.559 18.94C262.119 19.66 261.525 20.23 260.779 20.65C260.039 21.0633 259.219 21.27 258.319 21.27ZM285.254 21V6.6H287.664V13.28L293.414 6.6H296.374L290.184 13.66L296.794 21H293.734L287.664 14.28V21H285.254ZM304.183 21V18.62H297.803V16.37L302.413 6.6H305.163L300.553 16.37H304.183V12.62H306.623V16.37H307.973V18.62H306.623V21H304.183ZM328.515 21V6.6H340.185V21H337.775V8.86H330.925V21H328.515ZM348.968 21V18.62H342.588V16.37L347.198 6.6H349.948L345.338 16.37H348.968V12.62H351.408V16.37H352.758V18.62H351.408V21H348.968Z" fill="white"/>
<path d="M57.5668 17.66L55.0368 15.12L52.4968 17.66L51.1668 16.32L53.6968 13.79L51.1768 11.27L52.5168 9.94L55.0368 12.45L57.5568 9.94L58.8868 11.27L56.3668 13.79L58.8968 16.32L57.5668 17.66ZM96.1335 18.32V14.74H92.5535V12.85H96.1335V9.28H98.0235V12.85H101.584V14.74H98.0235V18.32H96.1335ZM143.25 17.66L140.72 15.12L138.18 17.66L136.85 16.32L139.38 13.79L136.86 11.27L138.2 9.94L140.72 12.45L143.24 9.94L144.57 11.27L142.05 13.79L144.58 16.32L143.25 17.66ZM184.962 18.32V14.74H181.382V12.85H184.962V9.28H186.852V12.85H190.412V14.74H186.852V18.32H184.962ZM231.786 17.66L229.256 15.12L226.716 17.66L225.386 16.32L227.916 13.79L225.396 11.27L226.736 9.94L229.256 12.45L231.776 9.94L233.106 11.27L230.586 13.79L233.116 16.32L231.786 17.66ZM273.204 18.32V14.74H269.624V12.85H273.204V9.28H275.094V12.85H278.654V14.74H275.094V18.32H273.204ZM320.575 17.66L318.045 15.12L315.505 17.66L314.175 16.32L316.705 13.79L314.185 11.27L315.525 9.94L318.045 12.45L320.565 9.94L321.895 11.27L319.375 13.79L321.905 16.32L320.575 17.66Z" fill="#A431FF"/>
<path d="M110.615 61V46.6H113.025V53.28L118.775 46.6H121.735L115.545 53.66L122.155 61H119.095L113.025 54.28V61H110.615ZM126.064 61V49.23L123.364 50.88V48.22L126.064 46.6H128.524V61H126.064ZM151.767 61V46.6H154.177V53.28L159.927 46.6H162.887L156.697 53.66L163.307 61H160.247L154.177 54.28V61H151.767ZM164.316 60.98V58.88L170.476 53.39C170.956 52.9633 171.29 52.56 171.476 52.18C171.663 51.8 171.756 51.4333 171.756 51.08C171.756 50.6 171.653 50.1733 171.446 49.8C171.24 49.42 170.953 49.12 170.586 48.9C170.226 48.68 169.81 48.57 169.336 48.57C168.836 48.57 168.393 48.6867 168.006 48.92C167.626 49.1467 167.33 49.45 167.116 49.83C166.903 50.21 166.803 50.62 166.816 51.06H164.336C164.336 50.1 164.55 49.2633 164.976 48.55C165.41 47.8367 166.003 47.2833 166.756 46.89C167.516 46.4967 168.393 46.3 169.386 46.3C170.306 46.3 171.133 46.5067 171.866 46.92C172.6 47.3267 173.176 47.8933 173.596 48.62C174.016 49.34 174.226 50.17 174.226 51.11C174.226 51.7967 174.133 52.3733 173.946 52.84C173.76 53.3067 173.48 53.7367 173.106 54.13C172.74 54.5233 172.283 54.96 171.736 55.44L167.366 59.31L167.146 58.71H174.226V60.98H164.316ZM196.064 61V46.6H198.474V53.28L204.224 46.6H207.184L200.994 53.66L207.604 61H204.544L198.474 54.28V61H196.064ZM213.133 61.27C212.413 61.27 211.733 61.13 211.093 60.85C210.453 60.57 209.897 60.1733 209.423 59.66C208.957 59.1467 208.62 58.54 208.413 57.84L210.743 57.21C210.91 57.7833 211.213 58.2267 211.653 58.54C212.1 58.8467 212.59 58.9967 213.123 58.99C213.597 58.99 214.02 58.88 214.393 58.66C214.767 58.44 215.06 58.1433 215.273 57.77C215.487 57.39 215.593 56.9667 215.593 56.5C215.593 55.7867 215.363 55.19 214.903 54.71C214.443 54.23 213.85 53.99 213.123 53.99C212.903 53.99 212.687 54.02 212.473 54.08C212.267 54.14 212.067 54.2233 211.873 54.33L210.773 52.43L215.613 48.29L215.823 48.87H208.973V46.6H217.803V48.88L213.913 52.62L213.893 51.91C214.767 51.97 215.51 52.2133 216.123 52.64C216.743 53.0667 217.217 53.6167 217.543 54.29C217.877 54.9633 218.043 55.7 218.043 56.5C218.043 57.4067 217.82 58.22 217.373 58.94C216.933 59.66 216.34 60.23 215.593 60.65C214.853 61.0633 214.033 61.27 213.133 61.27ZM240.068 61V46.6H242.478V53.28L248.228 46.6H251.188L244.998 53.66L251.608 61H248.548L242.478 54.28V61H240.068ZM258.997 61V58.62H252.617V56.37L257.227 46.6H259.977L255.367 56.37H258.997V52.62H261.437V56.37H262.787V58.62H261.437V61H258.997Z" fill="white"/>
<path d="M139.718 58.32V54.74H136.138V52.85H139.718V49.28H141.608V52.85H145.168V54.74H141.608V58.32H139.718ZM184.014 58.32V54.74H180.434V52.85H184.014V49.28H185.904V52.85H189.464V54.74H185.904V58.32H184.014ZM228.018 58.32V54.74H224.438V52.85H228.018V49.28H229.908V52.85H233.468V54.74H229.908V58.32H228.018Z" fill="#A431FF"/>
<rect x="22" y="35" width="331" height="1" fill="#A431FF"/>
</svg>
