<svg width="15" height="15" viewBox="0 0 15 15" fill="none" xmlns="http://www.w3.org/2000/svg">
<rect x="0.5" y="2.5" width="12" height="12" rx="2.5" stroke="black"/>
<path d="M7.16667 4H8.87868L3.43934 9.43934C2.85355 10.0251 2.85355 10.9749 3.43934 11.5607L4.14645 10.8536L3.43934 11.5607C4.02513 12.1464 4.97487 12.1464 5.56066 11.5607L4.85355 10.8536L5.56066 11.5607L11 6.12132V7.83333C11 8.66176 11.6716 9.33333 12.5 9.33333C13.3284 9.33333 14 8.66176 14 7.83333V2.5C14 1.67157 13.3284 1 12.5 1H7.16667C6.33824 1 5.66667 1.67157 5.66667 2.5C5.66667 3.32843 6.33824 4 7.16667 4Z" fill="black" stroke="white" stroke-width="2" stroke-linecap="round" stroke-linejoin="round"/>
</svg>
