<svg width="396" height="133" viewBox="0 0 396 133" fill="none" xmlns="http://www.w3.org/2000/svg">
<path d="M340.229 84.57V1.14258H357.144L365.258 27.6565C366.096 30.3231 366.782 32.7612 367.315 34.9707C367.848 37.1802 368.191 38.7802 368.343 39.7706C368.496 38.7802 368.839 37.1802 369.372 34.9707C369.905 32.7612 370.553 30.3231 371.315 27.6565L379.086 1.14258H396V84.57H382.629V58.6275C382.629 54.818 382.743 50.6657 382.972 46.1705C383.2 41.6754 383.467 37.1802 383.772 32.685C384.077 28.1898 384.419 23.9232 384.8 19.8852C385.257 15.8471 385.638 12.3043 385.943 9.25675L374.743 48.6848H361.715L350.172 9.25675C350.553 12.152 350.934 15.5805 351.315 19.5423C351.696 23.428 352.039 27.6184 352.344 32.1136C352.725 36.5326 353.029 41.0278 353.258 45.5991C353.486 50.1705 353.601 54.5133 353.601 58.6275V84.57H340.229Z" fill="#A431FF"/>
<path d="M274.104 84.57V1.14258H301.875C307.436 1.14258 312.274 2.20923 316.389 4.34253C320.579 6.47584 323.817 9.48532 326.103 13.371C328.389 17.1805 329.531 21.6756 329.531 26.8565C329.531 31.9612 328.35 36.4564 325.989 40.342C323.703 44.2277 320.503 47.2372 316.389 49.3705C312.274 51.5038 307.436 52.5705 301.875 52.5705H288.389V84.57H274.104ZM288.389 39.6563H301.875C305.836 39.6563 308.998 38.5135 311.36 36.2278C313.798 33.8659 315.017 30.7422 315.017 26.8565C315.017 22.8947 313.798 19.7709 311.36 17.4852C308.998 15.1995 305.836 14.0567 301.875 14.0567H288.389V39.6563Z" fill="#A431FF"/>
<path d="M223.406 85.7131C216.549 85.7131 211.216 83.8084 207.407 79.9989C203.597 76.1894 201.692 70.9324 201.692 64.2277V53.5993C201.692 48.4946 202.95 44.3042 205.464 41.028C208.054 37.7519 211.711 35.7328 216.435 34.971L214.949 38.0566C212.587 34.7805 210.759 31.5805 209.464 28.4568C208.245 25.333 207.635 22.2473 207.635 19.1997C207.635 15.3903 208.549 12.076 210.378 9.25701C212.207 6.36182 214.759 4.11423 218.035 2.51425C221.311 0.838081 225.159 0 229.578 0C234.149 0 238.111 0.876179 241.463 2.62854C244.892 4.38089 247.52 6.81896 249.349 9.94272C251.254 12.9903 252.206 16.6093 252.206 20.7997H238.949C238.949 18.9712 238.568 17.3712 237.806 15.9998C237.044 14.6284 235.94 13.5998 234.492 12.9141C233.121 12.1522 231.482 11.7713 229.578 11.7713C227.749 11.7713 226.149 12.1141 224.778 12.7998C223.406 13.4855 222.34 14.476 221.578 15.7712C220.892 17.0664 220.549 18.5902 220.549 20.3426C220.549 22.1711 221.006 24.1901 221.921 26.3996C222.911 28.6091 224.244 30.8567 225.921 33.1424L241.692 55.4278L247.977 43.428H261.806L249.577 66.6277L262.377 84.5703H248.092L242.72 77.0275C237.387 82.8179 230.949 85.7131 223.406 85.7131ZM224.549 73.9419C226.759 73.9419 228.816 73.3323 230.721 72.1133C232.625 70.8943 234.263 69.2181 235.635 67.0848L219.978 45.1422C218.378 45.7518 217.197 46.7803 216.435 48.2279C215.673 49.5993 215.292 51.3898 215.292 53.5993V64.2277C215.292 67.2753 216.092 69.6752 217.692 71.4276C219.368 73.1038 221.654 73.9419 224.549 73.9419Z" fill="#A431FF"/>
<path d="M134.652 84.57V1.14258H151.566L159.681 27.6565C160.519 30.3231 161.204 32.7612 161.738 34.9707C162.271 37.1802 162.614 38.7802 162.766 39.7706C162.919 38.7802 163.261 37.1802 163.795 34.9707C164.328 32.7612 164.976 30.3231 165.738 27.6565L173.509 1.14258H190.423V84.57H177.052V58.6275C177.052 54.818 177.166 50.6657 177.395 46.1705C177.623 41.6754 177.89 37.1802 178.195 32.685C178.499 28.1898 178.842 23.9232 179.223 19.8852C179.68 15.8471 180.061 12.3043 180.366 9.25675L169.166 48.6848H156.138L144.595 9.25675C144.976 12.152 145.357 15.5805 145.738 19.5423C146.119 23.428 146.462 27.6184 146.766 32.1136C147.147 36.5326 147.452 41.0278 147.681 45.5991C147.909 50.1705 148.024 54.5133 148.024 58.6275V84.57H134.652Z" fill="#A431FF"/>
<path d="M86.8117 84.57V14.3995H64.9834V1.14258H123.04V14.3995H101.211V84.57H86.8117Z" fill="#A431FF"/>
<path d="M0 84.57V1.14258H14.2855V34.6278H36.6852V1.14258H50.9707V84.57H36.6852V47.8848H14.2855V84.57H0Z" fill="#A431FF"/>
<path d="M378.885 132.196V102.448H396V105.79H382.512V114.999H394.574V118.3H382.512V128.854H396V132.196H378.885Z" fill="black"/>
<path d="M363.578 132.604C361.785 132.604 360.223 132.264 358.892 131.585C357.588 130.906 356.569 129.928 355.836 128.651C355.13 127.347 354.776 125.812 354.776 124.046V110.599C354.776 108.806 355.13 107.271 355.836 105.994C356.569 104.717 357.588 103.739 358.892 103.06C360.223 102.381 361.785 102.041 363.578 102.041C365.371 102.041 366.92 102.394 368.224 103.101C369.528 103.78 370.533 104.758 371.239 106.035C371.946 107.311 372.299 108.833 372.299 110.599H368.631C368.631 108.914 368.183 107.624 367.287 106.727C366.417 105.804 365.181 105.342 363.578 105.342C361.976 105.342 360.712 105.79 359.789 106.687C358.892 107.583 358.444 108.873 358.444 110.558V124.046C358.444 125.73 358.892 127.034 359.789 127.958C360.712 128.855 361.976 129.303 363.578 129.303C365.181 129.303 366.417 128.855 367.287 127.958C368.183 127.034 368.631 125.73 368.631 124.046H372.299C372.299 125.785 371.946 127.306 371.239 128.61C370.533 129.887 369.528 130.879 368.224 131.585C366.92 132.264 365.371 132.604 363.578 132.604Z" fill="black"/>
<path d="M331.239 132.196V102.448H336.129L345.217 127.917C345.162 127.238 345.094 126.409 345.013 125.431C344.958 124.426 344.904 123.38 344.85 122.294C344.823 121.18 344.809 120.134 344.809 119.156V102.448H348.354V132.196H343.464L334.418 106.727C334.472 107.379 334.526 108.208 334.581 109.213C334.635 110.191 334.676 111.237 334.703 112.351C334.757 113.437 334.785 114.483 334.785 115.488V132.196H331.239Z" fill="black"/>
<path d="M308.027 132.196V102.448H325.142V105.79H311.654V114.999H323.716V118.3H311.654V128.854H325.142V132.196H308.027Z" fill="black"/>
<path d="M284.612 132.196V128.854H290.684V105.79H284.612V102.448H300.505V105.79H294.433V128.854H300.505V132.196H284.612Z" fill="black"/>
<path d="M269.102 132.604C267.309 132.604 265.747 132.264 264.416 131.585C263.112 130.906 262.093 129.928 261.359 128.651C260.653 127.347 260.3 125.812 260.3 124.046V110.599C260.3 108.806 260.653 107.271 261.359 105.994C262.093 104.717 263.112 103.739 264.416 103.06C265.747 102.381 267.309 102.041 269.102 102.041C270.895 102.041 272.443 102.394 273.747 103.101C275.051 103.78 276.057 104.758 276.763 106.035C277.469 107.311 277.822 108.833 277.822 110.599H274.155C274.155 108.914 273.707 107.624 272.81 106.727C271.941 105.804 270.705 105.342 269.102 105.342C267.499 105.342 266.236 105.79 265.312 106.687C264.416 107.583 263.967 108.873 263.967 110.558V124.046C263.967 125.73 264.416 127.034 265.312 127.958C266.236 128.855 267.499 129.303 269.102 129.303C270.705 129.303 271.941 128.855 272.81 127.958C273.707 127.034 274.155 125.73 274.155 124.046H277.822C277.822 125.785 277.469 127.306 276.763 128.61C276.057 129.887 275.051 130.879 273.747 131.585C272.443 132.264 270.895 132.604 269.102 132.604Z" fill="black"/>
<path d="M245.483 132.603C243.527 132.603 241.843 132.277 240.43 131.625C239.045 130.973 237.972 130.036 237.211 128.814C236.45 127.591 236.056 126.138 236.029 124.453H239.697C239.697 125.948 240.199 127.129 241.205 127.999C242.237 128.868 243.663 129.303 245.483 129.303C247.195 129.303 248.526 128.882 249.477 128.039C250.455 127.197 250.944 126.029 250.944 124.535C250.944 123.34 250.618 122.294 249.966 121.397C249.341 120.501 248.431 119.876 247.236 119.523L243.201 118.259C241.164 117.635 239.588 116.589 238.474 115.122C237.388 113.655 236.844 111.929 236.844 109.946C236.844 108.343 237.197 106.958 237.904 105.79C238.637 104.594 239.656 103.671 240.96 103.019C242.264 102.34 243.799 102 245.565 102C248.173 102 250.265 102.734 251.84 104.201C253.416 105.64 254.217 107.569 254.245 109.987H250.577C250.577 108.52 250.129 107.379 249.232 106.564C248.363 105.722 247.127 105.301 245.524 105.301C243.948 105.301 242.712 105.681 241.816 106.442C240.946 107.202 240.512 108.262 240.512 109.62C240.512 110.843 240.838 111.902 241.49 112.799C242.142 113.695 243.079 114.334 244.302 114.714L248.377 116.018C250.36 116.643 251.895 117.702 252.981 119.197C254.068 120.691 254.611 122.443 254.611 124.453C254.611 126.083 254.231 127.51 253.47 128.732C252.71 129.955 251.637 130.905 250.251 131.585C248.893 132.264 247.304 132.603 245.483 132.603Z" fill="black"/>
<path d="M198.244 132.603C196.288 132.603 194.604 132.277 193.191 131.625C191.806 130.973 190.732 130.036 189.972 128.814C189.211 127.591 188.817 126.138 188.79 124.453H192.458C192.458 125.948 192.96 127.129 193.965 127.999C194.998 128.868 196.424 129.303 198.244 129.303C199.956 129.303 201.287 128.882 202.238 128.039C203.216 127.197 203.705 126.029 203.705 124.535C203.705 123.34 203.379 122.294 202.727 121.397C202.102 120.501 201.192 119.876 199.996 119.523L195.962 118.259C193.925 117.635 192.349 116.589 191.235 115.122C190.148 113.655 189.605 111.929 189.605 109.946C189.605 108.343 189.958 106.958 190.665 105.79C191.398 104.594 192.417 103.671 193.721 103.019C195.025 102.34 196.56 102 198.326 102C200.934 102 203.025 102.734 204.601 104.201C206.177 105.64 206.978 107.569 207.005 109.987H203.338C203.338 108.52 202.89 107.379 201.993 106.564C201.124 105.722 199.888 105.301 198.285 105.301C196.709 105.301 195.473 105.681 194.577 106.442C193.707 107.202 193.273 108.262 193.273 109.62C193.273 110.843 193.599 111.902 194.251 112.799C194.903 113.695 195.84 114.334 197.062 114.714L201.137 116.018C203.121 116.643 204.655 117.702 205.742 119.197C206.829 120.691 207.372 122.443 207.372 124.453C207.372 126.083 206.992 127.51 206.231 128.732C205.47 129.955 204.397 130.905 203.012 131.585C201.654 132.264 200.064 132.603 198.244 132.603Z" fill="black"/>
<path d="M166.924 132.196V102.448H170.591V128.854H184.039V132.196H166.924Z" fill="black"/>
<path d="M140.655 132.196L148.398 102.448H153.329L161.03 132.196H157.322L155.366 124.29H146.36L144.404 132.196H140.655ZM147.094 121.193H154.592L152.31 112.025C151.875 110.286 151.536 108.832 151.291 107.664C151.047 106.496 150.897 105.735 150.843 105.382C150.788 105.735 150.639 106.496 150.395 107.664C150.15 108.832 149.81 110.272 149.376 111.984L147.094 121.193Z" fill="black"/>
<path d="M119.277 132.196V128.854H125.349V105.79H119.277V102.448H135.17V105.79H129.098V128.854H135.17V132.196H119.277Z" fill="black"/>
<path d="M95.1289 132.196V102.448H104.338C106.104 102.448 107.653 102.815 108.984 103.548C110.315 104.255 111.347 105.246 112.081 106.523C112.814 107.8 113.181 109.294 113.181 111.006C113.181 113.016 112.651 114.741 111.592 116.181C110.56 117.621 109.147 118.612 107.354 119.156L113.589 132.196H109.269L103.564 119.563H98.7964V132.196H95.1289ZM98.7964 116.263H104.338C105.86 116.263 107.082 115.787 108.006 114.836C108.93 113.858 109.391 112.581 109.391 111.006C109.391 109.403 108.93 108.126 108.006 107.175C107.082 106.224 105.86 105.749 104.338 105.749H98.7964V116.263Z" fill="black"/>
<path d="M71.8359 132.196V102.448H88.951V105.79H75.4627V114.999H87.5248V118.3H75.4627V128.854H88.951V132.196H71.8359Z" fill="black"/>
<path d="M54.5329 132.196V105.749H46.3828V102.407H66.3504V105.749H58.2004V132.196H54.5329Z" fill="black"/>
<path d="M22.5596 132.196L30.3021 102.448H35.2329L42.9347 132.196H39.2264L37.2704 124.29H28.2646L26.3086 132.196H22.5596ZM28.9981 121.193H36.4961L34.2141 112.025C33.7795 110.286 33.4399 108.832 33.1954 107.664C32.9509 106.496 32.8015 105.735 32.7471 105.382C32.6928 105.735 32.5434 106.496 32.2989 107.664C32.0544 108.832 31.7148 110.272 31.2801 111.984L28.9981 121.193Z" fill="black"/>
<path d="M0 132.196V102.448H4.80853L7.90554 112.065C8.20438 112.935 8.47604 113.804 8.72055 114.673C8.96505 115.515 9.14163 116.167 9.2503 116.629C9.38613 116.167 9.56272 115.515 9.78005 114.673C9.99739 113.804 10.2419 112.921 10.5136 112.025L13.4476 102.448H18.2561V132.196H14.6701V121.397C14.6701 120.202 14.7108 118.843 14.7923 117.322C14.8738 115.801 14.9825 114.252 15.1183 112.677C15.2542 111.074 15.39 109.552 15.5258 108.113C15.6888 106.646 15.8247 105.369 15.9333 104.282L11.1248 119.156H7.25354L2.40426 104.282C2.5401 105.342 2.67593 106.578 2.81176 107.99C2.9476 109.376 3.06985 110.856 3.17852 112.432C3.28718 113.981 3.38227 115.529 3.46377 117.078C3.54527 118.626 3.58602 120.066 3.58602 121.397V132.196H0Z" fill="black"/>
</svg>
