<svg width="100" height="100" viewBox="0 0 100 100" fill="none" xmlns="http://www.w3.org/2000/svg">
<path d="M50.2149 5.62574L50.2288 5.63148L50.2428 5.63681L95.5378 22.8177C95.6363 22.8607 95.7204 22.9311 95.7801 23.0205C95.842 23.113 95.875 23.2218 95.875 23.3331V26.4581C95.875 26.6073 95.8157 26.7503 95.7103 26.8558C95.6048 26.9613 95.4617 27.0206 95.3125 27.0206H91.625C90.5204 27.0206 89.625 27.916 89.625 29.0206V30.3643C89.625 30.7175 89.49 31.0371 89.2668 31.2777C89.02 31.5438 88.6705 31.7081 88.2812 31.7081H11.7188C11.3295 31.7081 10.98 31.5438 10.7332 31.2777C10.51 31.0371 10.375 30.7176 10.375 30.3643V29.0206C10.375 27.916 9.47957 27.0206 8.375 27.0206H4.6875C4.53831 27.0206 4.39524 26.9613 4.28975 26.8558C4.18426 26.7503 4.125 26.6072 4.125 26.4581V23.3331C4.125 23.2218 4.15801 23.113 4.21985 23.0205C4.27962 22.9311 4.36373 22.8607 4.46213 22.8177L49.7572 5.63681L49.7712 5.63148L49.7851 5.62574C49.9227 5.56876 50.0773 5.56876 50.2149 5.62574ZM94.0277 85.8658L94.0278 85.8658C94.0439 85.8752 94.0602 85.8847 94.0765 85.8945C94.2795 86.0159 94.47 86.1563 94.6456 86.3134C95.4016 86.9901 95.875 87.9702 95.875 89.0622V92.1872C95.875 92.3364 95.8157 92.4795 95.7103 92.585C95.6048 92.6905 95.4617 92.7497 95.3125 92.7497H4.6875C4.5383 92.7497 4.39524 92.6905 4.28976 92.585C4.18427 92.4795 4.125 92.3364 4.125 92.1872V89.0622C4.125 87.9702 4.59842 86.9901 5.35441 86.3134L4.6875 85.5683L5.35441 86.3134C5.52999 86.1563 5.72055 86.0158 5.92355 85.8944C5.9399 85.8847 5.95614 85.8751 5.97228 85.8658L5.47398 85.0025L5.97231 85.8658C6.51302 85.5537 7.14034 85.3747 7.8125 85.3747H92.1875C92.8597 85.3747 93.487 85.5537 94.0277 85.8658ZM70.5833 36.8331H79.4167V70.6664C79.4167 71.771 80.3121 72.6664 81.4167 72.6664H88.2812C88.6345 72.6664 88.954 72.8014 89.1946 73.0246C89.4607 73.2714 89.625 73.6209 89.625 74.0102V79.4164H10.375V74.0102C10.375 73.6209 10.5393 73.2714 10.8054 73.0246C11.046 72.8014 11.3655 72.6664 11.7188 72.6664H18.5833C19.6879 72.6664 20.5833 71.771 20.5833 70.6664L20.5833 36.8331L30.25 36.8331V70.6664C30.25 71.771 31.1454 72.6664 32.25 72.6664H43.5833C44.6879 72.6664 45.5833 71.771 45.5833 70.6664V36.8331L54.4167 36.8331V70.6664C54.4167 71.771 55.3121 72.6664 56.4167 72.6664H68.5833C69.6879 72.6664 70.5833 71.771 70.5833 70.6664V36.8331ZM71.236 24.9581C73.4583 24.9581 74.0232 21.8762 71.9453 21.0881L50.7093 13.033C50.2523 12.8597 49.7477 12.8597 49.2907 13.033L28.0547 21.0881C25.9768 21.8762 26.5417 24.9581 28.764 24.9581H71.236Z" fill="black" stroke="#F9F9F9" stroke-width="2"/>
</svg>
