<svg width="100" height="100" viewBox="0 0 100 100" fill="none" xmlns="http://www.w3.org/2000/svg">
<path d="M91.5546 82.0313C86.199 72.6317 77.8362 65.3077 67.8125 61.2383C72.7972 57.4998 76.4792 52.2876 78.3371 46.3401C80.1949 40.3927 80.1344 34.0114 78.164 28.1003C76.1936 22.1891 72.4133 17.0478 67.3585 13.4045C62.3038 9.76127 56.2308 7.80078 50 7.80078C43.7691 7.80078 37.6961 9.76127 32.6414 13.4045C27.5866 17.0478 23.8063 22.1891 21.8359 28.1003C19.8655 34.0114 19.805 40.3927 21.6628 46.3401C23.5207 52.2876 27.2028 57.4998 32.1875 61.2383C22.1637 65.3077 13.8009 72.6317 8.44527 82.0313C8.11342 82.5649 7.89224 83.1597 7.79488 83.7805C7.69753 84.4013 7.72598 85.0354 7.87856 85.6449C8.03113 86.2545 8.30471 86.8272 8.68304 87.3289C9.06136 87.8307 9.5367 88.2512 10.0808 88.5656C10.6249 88.8799 11.2266 89.0817 11.8503 89.1588C12.4739 89.236 13.1067 89.1869 13.711 89.0146C14.3153 88.8424 14.8788 88.5503 15.3679 88.1559C15.8571 87.7615 16.262 87.2728 16.5586 86.7188C23.6367 74.4844 36.1367 67.1875 50 67.1875C63.8632 67.1875 76.3632 74.4883 83.4414 86.7188C84.084 87.7521 85.1033 88.495 86.2837 88.7905C87.4641 89.0859 88.7132 88.9108 89.7669 88.302C90.8205 87.6933 91.5961 86.6986 91.9298 85.5284C92.2634 84.3582 92.1289 83.1041 91.5546 82.0313ZM29.6875 37.5C29.6875 33.4826 30.8788 29.5554 33.1107 26.215C35.3427 22.8746 38.5151 20.2711 42.2267 18.7337C45.9383 17.1963 50.0225 16.794 53.9627 17.5778C57.903 18.3616 61.5223 20.2961 64.3631 23.1369C67.2038 25.9776 69.1384 29.597 69.9222 33.5372C70.7059 37.4775 70.3037 41.5616 68.7663 45.2733C67.2289 48.9849 64.6254 52.1573 61.285 54.3892C57.9446 56.6212 54.0174 57.8125 50 57.8125C44.6147 57.8063 39.4517 55.6642 35.6437 51.8563C31.8357 48.0483 29.6937 42.8853 29.6875 37.5Z" fill="black"/>
<path fill-rule="evenodd" clip-rule="evenodd" d="M30.0968 62.1452C21.0018 66.3486 13.4241 73.293 8.44527 82.0313C8.11342 82.5649 7.89224 83.1597 7.79488 83.7805C7.69753 84.4013 7.72598 85.0354 7.87856 85.6449C8.03113 86.2545 8.30471 86.8272 8.68304 87.3289C9.06136 87.8307 9.5367 88.2512 10.0808 88.5656C10.6249 88.8799 11.2266 89.0817 11.8503 89.1588C12.4739 89.236 13.1067 89.1869 13.711 89.0146C14.3153 88.8424 14.8788 88.5503 15.3679 88.1559C15.8571 87.7615 16.262 87.2728 16.5586 86.7188C23.6367 74.4844 36.1367 67.1875 50 67.1875C63.8632 67.1875 76.3632 74.4883 83.4414 86.7188C84.084 87.7521 85.1033 88.495 86.2837 88.7905C87.4641 89.0859 88.7132 88.9108 89.7669 88.302C90.8205 87.6933 91.5961 86.6986 91.9298 85.5284C92.2634 84.3582 92.1289 83.1041 91.5546 82.0313C86.5758 73.293 78.9981 66.3486 69.9031 62.1452C69.2148 61.827 68.5177 61.5246 67.8125 61.2383C68.4195 60.783 69.0073 60.3058 69.5748 59.8081C73.667 56.2193 76.7055 51.5633 78.3371 46.3401C80.1949 40.3927 80.1344 34.0114 78.164 28.1003C76.1936 22.1891 72.4133 17.0478 67.3585 13.4045C62.3038 9.76127 56.2308 7.80078 50 7.80078C43.7691 7.80078 37.6961 9.76127 32.6414 13.4045C27.5866 17.0478 23.8063 22.1891 21.8359 28.1003C19.8655 34.0114 19.805 40.3927 21.6628 46.3401C23.2944 51.5633 26.3329 56.2193 30.4251 59.8081C30.9926 60.3058 31.5804 60.783 32.1875 61.2383C31.4822 61.5246 30.7851 61.827 30.0968 62.1452ZM63.7825 61.7608L66.6125 59.6383C71.2614 56.1516 74.6954 51.2906 76.4281 45.7438C78.1607 40.197 78.1043 34.2456 76.2666 28.7327C74.429 23.2198 70.9034 18.4248 66.1891 15.027C61.4749 11.6292 55.8111 9.80078 50 9.80078C44.1888 9.80078 38.525 11.6292 33.8108 15.027C29.0966 18.4248 25.5709 23.2198 23.7333 28.7327C21.8957 34.2456 21.8392 40.197 23.5719 45.7438C25.3046 51.2906 28.7386 56.1516 33.3875 59.6383L36.2174 61.7608L32.9398 63.0914C23.3321 66.9919 15.3164 74.0119 10.183 83.0214L10.1639 83.0548L10.1436 83.0875C9.95336 83.3934 9.82655 83.7345 9.77073 84.0904C9.71491 84.4463 9.73123 84.8098 9.81871 85.1593C9.90618 85.5088 10.063 85.8372 10.2799 86.1248C10.4968 86.4125 10.7694 86.6536 11.0813 86.8338C11.3933 87.014 11.7383 87.1297 12.0958 87.1739C12.4534 87.2182 12.8162 87.1901 13.1626 87.0913C13.5091 86.9925 13.8322 86.8251 14.1126 86.599C14.3931 86.3728 14.6252 86.0926 14.7952 85.775L14.8108 85.7458L14.8274 85.7172C22.2547 72.8793 35.4063 65.1875 50 65.1875C64.582 65.1875 77.7236 72.8708 85.154 85.6853C85.5232 86.2659 86.1013 86.6831 86.7693 86.8503C87.4461 87.0197 88.1622 86.9193 88.7663 86.5703C89.3704 86.2213 89.8151 85.651 90.0064 84.9801C90.1956 84.3166 90.1222 83.6059 89.8021 82.9954C84.6682 73.9984 76.6586 66.9881 67.0601 63.0914L63.7825 61.7608ZM27.6875 37.5023L27.6875 37.5C27.6875 33.087 28.9961 28.7731 31.4478 25.1038C33.8995 21.4346 37.3843 18.5747 41.4613 16.8859C45.5384 15.1972 50.0247 14.7553 54.3529 15.6162C58.6811 16.4772 62.6568 18.6022 65.7773 21.7227C68.8977 24.8431 71.0228 28.8188 71.8837 33.147C72.7447 37.4753 72.3028 41.9616 70.614 46.0386C68.9252 50.1157 66.0654 53.6004 62.3961 56.0522C58.7268 58.5039 54.413 59.8125 50 59.8125H49.9977C44.0827 59.8057 38.412 57.453 34.2295 53.2705C30.047 49.088 27.6943 43.4172 27.6875 37.5023ZM29.6875 37.5C29.6875 33.4826 30.8788 29.5554 33.1107 26.215C35.3427 22.8746 38.5151 20.2711 42.2267 18.7337C45.9383 17.1963 50.0225 16.794 53.9627 17.5778C57.903 18.3616 61.5223 20.2961 64.3631 23.1369C67.2038 25.9776 69.1384 29.597 69.9222 33.5372C70.7059 37.4775 70.3037 41.5616 68.7663 45.2733C67.2289 48.9849 64.6254 52.1573 61.285 54.3892C57.9446 56.6212 54.0174 57.8125 50 57.8125C44.6147 57.8063 39.4517 55.6642 35.6437 51.8563C31.8357 48.0483 29.6937 42.8853 29.6875 37.5Z" fill="#F9F9F9"/>
</svg>
