<svg width="100" height="108" viewBox="0 0 100 108" fill="none" xmlns="http://www.w3.org/2000/svg">
<path d="M81.25 59.375V48.4375C81.25 44.7079 79.7684 41.131 77.1312 38.4938C74.494 35.8566 70.9171 34.375 67.1875 34.375H60.9375C59.6943 34.375 58.502 33.8811 57.6229 33.0021C56.7439 32.123 56.25 30.9307 56.25 29.6875V23.4375C56.25 19.7079 54.7684 16.131 52.1312 13.4938C49.494 10.8566 45.9171 9.375 42.1875 9.375H34.375M43.75 9.375H23.4375C20.85 9.375 18.75 11.475 18.75 14.0625V85.9375C18.75 88.525 20.85 90.625 23.4375 90.625H76.5625C79.15 90.625 81.25 88.525 81.25 85.9375V46.875C81.25 36.9294 77.2991 27.3911 70.2665 20.3585C63.2339 13.3259 53.6956 9.375 43.75 9.375Z" stroke="black" stroke-width="5" stroke-linecap="round" stroke-linejoin="round"/>
<path d="M51.2571 76.6655C52.05 77.1927 52.8999 77.6412 53.7953 78H48C46.3431 78 45 79.3431 45 81V102.277C45 104.58 47.4885 106.024 49.4884 104.882L59 99.4464L68.5116 104.882C70.5115 106.024 73 104.58 73 102.277V81C73 79.3431 71.6569 78 70 78H64.2047C65.1001 77.6412 65.95 77.1927 66.7429 76.6655C70.5102 74.1607 73 69.8715 73 65C73 57.268 66.732 51 59 51C51.268 51 45 57.268 45 65C45 69.8715 47.4898 74.1607 51.2571 76.6655ZM58.5039 99.1628L58.5051 99.1635L58.5039 99.1628ZM54 87H64V91.9377L60.4884 89.9311C59.5661 89.4041 58.4339 89.4041 57.5116 89.9311L54 91.9377V87ZM64 65C64 67.7614 61.7614 70 59 70C56.2386 70 54 67.7614 54 65C54 62.2386 56.2386 60 59 60C61.7614 60 64 62.2386 64 65Z" fill="black" stroke="#FBF6FF" stroke-width="4"/>
</svg>
