<svg width="302" height="58" viewBox="0 0 302 58" fill="none" xmlns="http://www.w3.org/2000/svg">
<path d="M80.98 15V4.92H82.667V9.596L86.692 4.92H88.764L84.431 9.862L89.058 15H86.916L82.667 10.296V15H80.98ZM92.1585 15.21C91.6125 15.21 91.1505 15.1073 90.7725 14.902C90.3945 14.692 90.1075 14.4143 89.9115 14.069C89.7201 13.7237 89.6245 13.3433 89.6245 12.928C89.6245 12.564 89.6851 12.2373 89.8065 11.948C89.9278 11.654 90.1145 11.402 90.3665 11.192C90.6185 10.9773 90.9451 10.8023 91.3465 10.667C91.6498 10.569 92.0045 10.4803 92.4105 10.401C92.8211 10.3217 93.2645 10.2493 93.7405 10.184C94.2211 10.114 94.7228 10.0393 95.2455 9.96L94.6435 10.303C94.6481 9.78033 94.5315 9.39533 94.2935 9.148C94.0555 8.90067 93.6541 8.777 93.0895 8.777C92.7488 8.777 92.4198 8.85633 92.1025 9.015C91.7851 9.17367 91.5635 9.44667 91.4375 9.834L89.8975 9.351C90.0841 8.71167 90.4388 8.19833 90.9615 7.811C91.4888 7.42367 92.1981 7.23 93.0895 7.23C93.7615 7.23 94.3518 7.33967 94.8605 7.559C95.3738 7.77833 95.7541 8.13767 96.0015 8.637C96.1368 8.903 96.2185 9.176 96.2465 9.456C96.2745 9.73133 96.2885 10.0323 96.2885 10.359V15H94.8115V13.362L95.0565 13.628C94.7158 14.174 94.3168 14.5753 93.8595 14.832C93.4068 15.084 92.8398 15.21 92.1585 15.21ZM92.4945 13.866C92.8771 13.866 93.2038 13.7983 93.4745 13.663C93.7451 13.5277 93.9598 13.362 94.1185 13.166C94.2818 12.97 94.3915 12.7857 94.4475 12.613C94.5361 12.3983 94.5851 12.1533 94.5945 11.878C94.6085 11.598 94.6155 11.3717 94.6155 11.199L95.1335 11.353C94.6248 11.4323 94.1885 11.5023 93.8245 11.563C93.4605 11.6237 93.1478 11.682 92.8865 11.738C92.6251 11.7893 92.3941 11.8477 92.1935 11.913C91.9975 11.983 91.8318 12.0647 91.6965 12.158C91.5611 12.2513 91.4561 12.3587 91.3815 12.48C91.3115 12.6013 91.2765 12.7437 91.2765 12.907C91.2765 13.0937 91.3231 13.2593 91.4165 13.404C91.5098 13.544 91.6451 13.656 91.8225 13.74C92.0045 13.824 92.2285 13.866 92.4945 13.866ZM101.653 18.15V15.133C100.916 15.2497 100.246 15.1703 99.6439 14.895C99.0465 14.6197 98.5705 14.1717 98.2159 13.551C97.8659 12.9303 97.6909 12.1533 97.6909 11.22C97.6909 10.2913 97.8659 9.51433 98.2159 8.889C98.5705 8.26367 99.0465 7.81567 99.6439 7.545C100.246 7.26967 100.916 7.19033 101.653 7.307V5.039H103.151V7.307C103.888 7.19033 104.556 7.26967 105.153 7.545C105.755 7.81567 106.231 8.26367 106.581 8.889C106.936 9.51433 107.113 10.2913 107.113 11.22C107.113 12.1533 106.936 12.9303 106.581 13.551C106.231 14.1717 105.755 14.6197 105.153 14.895C104.556 15.1703 103.888 15.2497 103.151 15.133V18.15H101.653ZM101.653 13.621V8.833C101.275 8.76767 100.944 8.77933 100.659 8.868C100.379 8.952 100.146 9.10133 99.9589 9.316C99.7769 9.526 99.6392 9.79433 99.5459 10.121C99.4525 10.443 99.4059 10.8093 99.4059 11.22C99.4059 11.6353 99.4525 12.004 99.5459 12.326C99.6439 12.648 99.7885 12.9163 99.9799 13.131C100.171 13.3457 100.407 13.4973 100.687 13.586C100.967 13.67 101.289 13.6817 101.653 13.621ZM103.151 13.621C103.515 13.6817 103.837 13.67 104.117 13.586C104.397 13.502 104.63 13.355 104.817 13.145C105.008 12.935 105.153 12.669 105.251 12.347C105.349 12.0203 105.398 11.6447 105.398 11.22C105.398 10.7953 105.351 10.422 105.258 10.1C105.165 9.778 105.025 9.512 104.838 9.302C104.656 9.08733 104.423 8.94033 104.138 8.861C103.858 8.777 103.529 8.76767 103.151 8.833V13.621ZM112.089 15.21C111.324 15.21 110.652 15.0443 110.073 14.713C109.494 14.3817 109.042 13.922 108.715 13.334C108.393 12.746 108.232 12.0693 108.232 11.304C108.232 10.478 108.391 9.76167 108.708 9.155C109.025 8.54367 109.466 8.07 110.031 7.734C110.596 7.398 111.249 7.23 111.991 7.23C112.775 7.23 113.44 7.41433 113.986 7.783C114.537 8.147 114.945 8.66267 115.211 9.33C115.477 9.99733 115.577 10.7837 115.512 11.689H113.839V11.073C113.834 10.2517 113.69 9.652 113.405 9.274C113.12 8.896 112.672 8.707 112.061 8.707C111.37 8.707 110.857 8.92167 110.521 9.351C110.185 9.77567 110.017 10.3987 110.017 11.22C110.017 11.9853 110.185 12.578 110.521 12.998C110.857 13.418 111.347 13.628 111.991 13.628C112.406 13.628 112.763 13.537 113.062 13.355C113.365 13.1683 113.599 12.9 113.762 12.55L115.428 13.054C115.139 13.7353 114.691 14.265 114.084 14.643C113.482 15.021 112.817 15.21 112.089 15.21ZM109.485 11.689V10.415H114.686V11.689H109.485ZM116.514 16.68V13.677C116.924 13.677 117.216 13.537 117.389 13.257C117.561 12.977 117.699 12.4917 117.802 11.801C117.867 11.3903 117.921 10.9563 117.963 10.499C118.005 10.0417 118.04 9.55867 118.068 9.05C118.1 8.54133 118.128 8.00467 118.152 7.44H123.78V13.677H124.543V16.68H122.947V15H118.103V16.68H116.514ZM118.775 13.677H122.1V8.763H119.629C119.615 9.043 119.598 9.33 119.58 9.624C119.561 9.91333 119.54 10.2027 119.517 10.492C119.493 10.7813 119.468 11.059 119.44 11.325C119.416 11.5863 119.388 11.829 119.356 12.053C119.304 12.445 119.241 12.767 119.167 13.019C119.092 13.271 118.961 13.4903 118.775 13.677ZM129.58 15.21C128.842 15.21 128.224 15.035 127.725 14.685C127.225 14.335 126.85 13.859 126.598 13.257C126.346 12.6503 126.22 11.9713 126.22 11.22C126.22 10.4593 126.346 9.778 126.598 9.176C126.85 8.574 127.218 8.10033 127.704 7.755C128.194 7.405 128.798 7.23 129.517 7.23C130.231 7.23 130.849 7.405 131.372 7.755C131.899 8.10033 132.307 8.574 132.597 9.176C132.886 9.77333 133.031 10.4547 133.031 11.22C133.031 11.976 132.888 12.655 132.604 13.257C132.319 13.859 131.918 14.335 131.4 14.685C130.882 15.035 130.275 15.21 129.58 15.21ZM125.933 18.36V7.44H127.424V12.746H127.634V18.36H125.933ZM129.321 13.698C129.759 13.698 130.121 13.5883 130.406 13.369C130.69 13.1497 130.9 12.8533 131.036 12.48C131.176 12.102 131.246 11.682 131.246 11.22C131.246 10.7627 131.176 10.3473 131.036 9.974C130.896 9.596 130.679 9.29733 130.385 9.078C130.091 8.854 129.717 8.742 129.265 8.742C128.835 8.742 128.485 8.847 128.215 9.057C127.944 9.26233 127.743 9.55167 127.613 9.925C127.487 10.2937 127.424 10.7253 127.424 11.22C127.424 11.71 127.487 12.1417 127.613 12.515C127.743 12.8883 127.946 13.18 128.222 13.39C128.502 13.5953 128.868 13.698 129.321 13.698ZM136.688 15.21C136.142 15.21 135.68 15.1073 135.302 14.902C134.924 14.692 134.637 14.4143 134.441 14.069C134.249 13.7237 134.154 13.3433 134.154 12.928C134.154 12.564 134.214 12.2373 134.336 11.948C134.457 11.654 134.644 11.402 134.896 11.192C135.148 10.9773 135.474 10.8023 135.876 10.667C136.179 10.569 136.534 10.4803 136.94 10.401C137.35 10.3217 137.794 10.2493 138.27 10.184C138.75 10.114 139.252 10.0393 139.775 9.96L139.173 10.303C139.177 9.78033 139.061 9.39533 138.823 9.148C138.585 8.90067 138.183 8.777 137.619 8.777C137.278 8.777 136.949 8.85633 136.632 9.015C136.314 9.17367 136.093 9.44667 135.967 9.834L134.427 9.351C134.613 8.71167 134.968 8.19833 135.491 7.811C136.018 7.42367 136.727 7.23 137.619 7.23C138.291 7.23 138.881 7.33967 139.39 7.559C139.903 7.77833 140.283 8.13767 140.531 8.637C140.666 8.903 140.748 9.176 140.776 9.456C140.804 9.73133 140.818 10.0323 140.818 10.359V15H139.341V13.362L139.586 13.628C139.245 14.174 138.846 14.5753 138.389 14.832C137.936 15.084 137.369 15.21 136.688 15.21ZM137.024 13.866C137.406 13.866 137.733 13.7983 138.004 13.663C138.274 13.5277 138.489 13.362 138.648 13.166C138.811 12.97 138.921 12.7857 138.977 12.613C139.065 12.3983 139.114 12.1533 139.124 11.878C139.138 11.598 139.145 11.3717 139.145 11.199L139.663 11.353C139.154 11.4323 138.718 11.5023 138.354 11.563C137.99 11.6237 137.677 11.682 137.416 11.738C137.154 11.7893 136.923 11.8477 136.723 11.913C136.527 11.983 136.361 12.0647 136.226 12.158C136.09 12.2513 135.985 12.3587 135.911 12.48C135.841 12.6013 135.806 12.7437 135.806 12.907C135.806 13.0937 135.852 13.2593 135.946 13.404C136.039 13.544 136.174 13.656 136.352 13.74C136.534 13.824 136.758 13.866 137.024 13.866ZM145.429 15V7.44H148.866C149.113 7.44 149.344 7.454 149.559 7.482C149.774 7.51 149.958 7.545 150.112 7.587C150.476 7.69433 150.798 7.90433 151.078 8.217C151.358 8.525 151.498 8.952 151.498 9.498C151.498 9.82 151.447 10.086 151.344 10.296C151.241 10.5013 151.106 10.674 150.938 10.814C150.859 10.8793 150.777 10.9353 150.693 10.982C150.609 11.0287 150.525 11.066 150.441 11.094C150.623 11.122 150.796 11.1757 150.959 11.255C151.216 11.381 151.43 11.5677 151.603 11.815C151.78 12.0623 151.869 12.41 151.869 12.858C151.869 13.3667 151.745 13.796 151.498 14.146C151.255 14.4913 150.898 14.7317 150.427 14.867C150.254 14.9137 150.056 14.9487 149.832 14.972C149.608 14.9907 149.379 15 149.146 15H145.429ZM147.137 13.698H149.027C149.125 13.698 149.232 13.6887 149.349 13.67C149.466 13.6513 149.571 13.6257 149.664 13.593C149.832 13.5323 149.953 13.425 150.028 13.271C150.107 13.117 150.147 12.956 150.147 12.788C150.147 12.5593 150.089 12.3773 149.972 12.242C149.86 12.102 149.725 12.0087 149.566 11.962C149.473 11.9247 149.37 11.9037 149.258 11.899C149.151 11.8897 149.062 11.885 148.992 11.885H147.137V13.698ZM147.137 10.562H148.537C148.682 10.562 148.822 10.555 148.957 10.541C149.097 10.5223 149.214 10.492 149.307 10.45C149.461 10.3893 149.573 10.2867 149.643 10.142C149.718 9.99733 149.755 9.83633 149.755 9.659C149.755 9.47233 149.713 9.30433 149.629 9.155C149.55 9.001 149.421 8.89833 149.244 8.847C149.127 8.80033 148.985 8.77467 148.817 8.77C148.654 8.76533 148.549 8.763 148.502 8.763H147.137V10.562ZM159.815 7.44V15H158.198V10.065L154.6 15H153.249V7.44H154.866V12.249L158.478 7.44H159.815ZM165.064 15.21C164.284 15.21 163.619 15.0373 163.069 14.692C162.518 14.342 162.096 13.866 161.802 13.264C161.512 12.662 161.365 11.9807 161.361 11.22C161.365 10.4453 161.517 9.75933 161.816 9.162C162.119 8.56 162.548 8.08867 163.104 7.748C163.659 7.40267 164.319 7.23 165.085 7.23C165.943 7.23 166.669 7.447 167.262 7.881C167.859 8.31033 168.249 8.89833 168.431 9.645L166.751 10.1C166.62 9.694 166.403 9.379 166.1 9.155C165.796 8.92633 165.451 8.812 165.064 8.812C164.625 8.812 164.263 8.917 163.979 9.127C163.694 9.33233 163.484 9.617 163.349 9.981C163.213 10.345 163.146 10.758 163.146 11.22C163.146 11.9387 163.307 12.5197 163.629 12.963C163.951 13.4063 164.429 13.628 165.064 13.628C165.512 13.628 165.864 13.5253 166.121 13.32C166.382 13.1147 166.578 12.8183 166.709 12.431L168.431 12.816C168.197 13.586 167.789 14.1787 167.206 14.594C166.622 15.0047 165.908 15.21 165.064 15.21ZM172.967 15.21C172.211 15.21 171.551 15.0397 170.986 14.699C170.422 14.3583 169.983 13.8893 169.67 13.292C169.362 12.69 169.208 11.9993 169.208 11.22C169.208 10.4267 169.367 9.73133 169.684 9.134C170.002 8.53667 170.443 8.07 171.007 7.734C171.572 7.398 172.225 7.23 172.967 7.23C173.728 7.23 174.391 7.40033 174.955 7.741C175.52 8.08167 175.959 8.553 176.271 9.155C176.584 9.75233 176.74 10.4407 176.74 11.22C176.74 12.004 176.582 12.697 176.264 13.299C175.952 13.8963 175.513 14.3653 174.948 14.706C174.384 15.042 173.723 15.21 172.967 15.21ZM172.967 13.628C173.639 13.628 174.139 13.404 174.465 12.956C174.792 12.508 174.955 11.9293 174.955 11.22C174.955 10.4873 174.79 9.904 174.458 9.47C174.127 9.03133 173.63 8.812 172.967 8.812C172.515 8.812 172.141 8.91467 171.847 9.12C171.558 9.32067 171.343 9.603 171.203 9.967C171.063 10.3263 170.993 10.744 170.993 11.22C170.993 11.9527 171.159 12.5383 171.49 12.977C171.826 13.411 172.319 13.628 172.967 13.628ZM178.269 15L178.283 7.44H179.991V11.08L182.756 7.44H184.863L181.93 11.22L185.115 15H182.882L179.991 11.36V15H178.269ZM189.018 15.21C188.262 15.21 187.602 15.0397 187.037 14.699C186.473 14.3583 186.034 13.8893 185.721 13.292C185.413 12.69 185.259 11.9993 185.259 11.22C185.259 10.4267 185.418 9.73133 185.735 9.134C186.053 8.53667 186.494 8.07 187.058 7.734C187.623 7.398 188.276 7.23 189.018 7.23C189.779 7.23 190.442 7.40033 191.006 7.741C191.571 8.08167 192.01 8.553 192.322 9.155C192.635 9.75233 192.791 10.4407 192.791 11.22C192.791 12.004 192.633 12.697 192.315 13.299C192.003 13.8963 191.564 14.3653 190.999 14.706C190.435 15.042 189.774 15.21 189.018 15.21ZM189.018 13.628C189.69 13.628 190.19 13.404 190.516 12.956C190.843 12.508 191.006 11.9293 191.006 11.22C191.006 10.4873 190.841 9.904 190.509 9.47C190.178 9.03133 189.681 8.812 189.018 8.812C188.566 8.812 188.192 8.91467 187.898 9.12C187.609 9.32067 187.394 9.603 187.254 9.967C187.114 10.3263 187.044 10.744 187.044 11.22C187.044 11.9527 187.21 12.5383 187.541 12.977C187.877 13.411 188.37 13.628 189.018 13.628ZM196.08 15V8.938H193.553V7.44H200.294V8.938H197.767V15H196.08ZM205.058 15.21C204.292 15.21 203.62 15.0443 203.042 14.713C202.463 14.3817 202.01 13.922 201.684 13.334C201.362 12.746 201.201 12.0693 201.201 11.304C201.201 10.478 201.359 9.76167 201.677 9.155C201.994 8.54367 202.435 8.07 203 7.734C203.564 7.398 204.218 7.23 204.96 7.23C205.744 7.23 206.409 7.41433 206.955 7.783C207.505 8.147 207.914 8.66267 208.18 9.33C208.446 9.99733 208.546 10.7837 208.481 11.689H206.808V11.073C206.803 10.2517 206.658 9.652 206.374 9.274C206.089 8.896 205.641 8.707 205.03 8.707C204.339 8.707 203.826 8.92167 203.49 9.351C203.154 9.77567 202.986 10.3987 202.986 11.22C202.986 11.9853 203.154 12.578 203.49 12.998C203.826 13.418 204.316 13.628 204.96 13.628C205.375 13.628 205.732 13.537 206.031 13.355C206.334 13.1683 206.567 12.9 206.731 12.55L208.397 13.054C208.107 13.7353 207.659 14.265 207.053 14.643C206.451 15.021 205.786 15.21 205.058 15.21ZM202.454 11.689V10.415H207.655V11.689H202.454ZM209.823 15V7.44H211.209L213.918 12.662L216.634 7.44H218.013V15H216.403V10.835L214.254 15H213.589L211.44 10.835V15H209.823ZM219.954 15V7.44H226.52V15H224.833V9.022H221.641V15H219.954ZM231.923 15.21C231.158 15.21 230.486 15.0443 229.907 14.713C229.328 14.3817 228.876 13.922 228.549 13.334C228.227 12.746 228.066 12.0693 228.066 11.304C228.066 10.478 228.225 9.76167 228.542 9.155C228.859 8.54367 229.3 8.07 229.865 7.734C230.43 7.398 231.083 7.23 231.825 7.23C232.609 7.23 233.274 7.41433 233.82 7.783C234.371 8.147 234.779 8.66267 235.045 9.33C235.311 9.99733 235.411 10.7837 235.346 11.689H233.673V11.073C233.668 10.2517 233.524 9.652 233.239 9.274C232.954 8.896 232.506 8.707 231.895 8.707C231.204 8.707 230.691 8.92167 230.355 9.351C230.019 9.77567 229.851 10.3987 229.851 11.22C229.851 11.9853 230.019 12.578 230.355 12.998C230.691 13.418 231.181 13.628 231.825 13.628C232.24 13.628 232.597 13.537 232.896 13.355C233.199 13.1683 233.433 12.9 233.596 12.55L235.262 13.054C234.973 13.7353 234.525 14.265 233.918 14.643C233.316 15.021 232.651 15.21 231.923 15.21ZM229.319 11.689V10.415H234.52V11.689H229.319ZM240.541 15.21C239.803 15.21 239.185 15.035 238.686 14.685C238.186 14.335 237.811 13.859 237.559 13.257C237.307 12.6503 237.181 11.9713 237.181 11.22C237.181 10.4593 237.307 9.778 237.559 9.176C237.811 8.574 238.179 8.10033 238.665 7.755C239.155 7.405 239.759 7.23 240.478 7.23C241.192 7.23 241.81 7.405 242.333 7.755C242.86 8.10033 243.268 8.574 243.558 9.176C243.847 9.77333 243.992 10.4547 243.992 11.22C243.992 11.976 243.849 12.655 243.565 13.257C243.28 13.859 242.879 14.335 242.361 14.685C241.843 15.035 241.236 15.21 240.541 15.21ZM236.894 18.36V7.44H238.385V12.746H238.595V18.36H236.894ZM240.282 13.698C240.72 13.698 241.082 13.5883 241.367 13.369C241.651 13.1497 241.861 12.8533 241.997 12.48C242.137 12.102 242.207 11.682 242.207 11.22C242.207 10.7627 242.137 10.3473 241.997 9.974C241.857 9.596 241.64 9.29733 241.346 9.078C241.052 8.854 240.678 8.742 240.226 8.742C239.796 8.742 239.446 8.847 239.176 9.057C238.905 9.26233 238.704 9.55167 238.574 9.925C238.448 10.2937 238.385 10.7253 238.385 11.22C238.385 11.71 238.448 12.1417 238.574 12.515C238.704 12.8883 238.907 13.18 239.183 13.39C239.463 13.5953 239.829 13.698 240.282 13.698ZM247.649 15.21C247.103 15.21 246.641 15.1073 246.263 14.902C245.885 14.692 245.598 14.4143 245.402 14.069C245.21 13.7237 245.115 13.3433 245.115 12.928C245.115 12.564 245.175 12.2373 245.297 11.948C245.418 11.654 245.605 11.402 245.857 11.192C246.109 10.9773 246.435 10.8023 246.837 10.667C247.14 10.569 247.495 10.4803 247.901 10.401C248.311 10.3217 248.755 10.2493 249.231 10.184C249.711 10.114 250.213 10.0393 250.736 9.96L250.134 10.303C250.138 9.78033 250.022 9.39533 249.784 9.148C249.546 8.90067 249.144 8.777 248.58 8.777C248.239 8.777 247.91 8.85633 247.593 9.015C247.275 9.17367 247.054 9.44667 246.928 9.834L245.388 9.351C245.574 8.71167 245.929 8.19833 246.452 7.811C246.979 7.42367 247.688 7.23 248.58 7.23C249.252 7.23 249.842 7.33967 250.351 7.559C250.864 7.77833 251.244 8.13767 251.492 8.637C251.627 8.903 251.709 9.176 251.737 9.456C251.765 9.73133 251.779 10.0323 251.779 10.359V15H250.302V13.362L250.547 13.628C250.206 14.174 249.807 14.5753 249.35 14.832C248.897 15.084 248.33 15.21 247.649 15.21ZM247.985 13.866C248.367 13.866 248.694 13.7983 248.965 13.663C249.235 13.5277 249.45 13.362 249.609 13.166C249.772 12.97 249.882 12.7857 249.938 12.613C250.026 12.3983 250.075 12.1533 250.085 11.878C250.099 11.598 250.106 11.3717 250.106 11.199L250.624 11.353C250.115 11.4323 249.679 11.5023 249.315 11.563C248.951 11.6237 248.638 11.682 248.377 11.738C248.115 11.7893 247.884 11.8477 247.684 11.913C247.488 11.983 247.322 12.0647 247.187 12.158C247.051 12.2513 246.946 12.3587 246.872 12.48C246.802 12.6013 246.767 12.7437 246.767 12.907C246.767 13.0937 246.813 13.2593 246.907 13.404C247 13.544 247.135 13.656 247.313 13.74C247.495 13.824 247.719 13.866 247.985 13.866ZM255.498 15V8.938H252.971V7.44H259.712V8.938H257.185V15H255.498ZM261.8 18.36L263.256 14.363L263.284 15.539L259.987 7.44H261.744L264.082 13.432H263.634L265.909 7.44H267.596L263.382 18.36H261.8ZM272.273 15.21C271.536 15.21 270.917 15.035 270.418 14.685C269.919 14.335 269.543 13.859 269.291 13.257C269.039 12.6503 268.913 11.9713 268.913 11.22C268.913 10.4593 269.039 9.778 269.291 9.176C269.543 8.574 269.912 8.10033 270.397 7.755C270.887 7.405 271.491 7.23 272.21 7.23C272.924 7.23 273.542 7.405 274.065 7.755C274.592 8.10033 275.001 8.574 275.29 9.176C275.579 9.77333 275.724 10.4547 275.724 11.22C275.724 11.976 275.582 12.655 275.297 13.257C275.012 13.859 274.611 14.335 274.093 14.685C273.575 15.035 272.968 15.21 272.273 15.21ZM268.626 18.36V7.44H270.117V12.746H270.327V18.36H268.626ZM272.014 13.698C272.453 13.698 272.814 13.5883 273.099 13.369C273.384 13.1497 273.594 12.8533 273.729 12.48C273.869 12.102 273.939 11.682 273.939 11.22C273.939 10.7627 273.869 10.3473 273.729 9.974C273.589 9.596 273.372 9.29733 273.078 9.078C272.784 8.854 272.411 8.742 271.958 8.742C271.529 8.742 271.179 8.847 270.908 9.057C270.637 9.26233 270.437 9.55167 270.306 9.925C270.18 10.2937 270.117 10.7253 270.117 11.22C270.117 11.71 270.18 12.1417 270.306 12.515C270.437 12.8883 270.64 13.18 270.915 13.39C271.195 13.5953 271.561 13.698 272.014 13.698ZM277.253 15V7.44H278.94V10.422H282.335V7.44H284.022V15H282.335V12.004H278.94V15H277.253ZM292.528 7.44V15H290.911V10.065L287.313 15H285.962V7.44H287.579V12.249L291.191 7.44H292.528ZM293.654 15L296.419 11.178L293.71 7.44H295.698L297.399 9.855L299.072 7.44H301.06L298.351 11.178L301.13 15H299.142L297.399 12.501L295.642 15H293.654ZM80.966 34V26.44H82.352L85.061 31.662L87.777 26.44H89.156V34H87.546V29.835L85.397 34H84.732L82.583 29.835V34H80.966ZM93.2249 34.21C92.6789 34.21 92.2169 34.1073 91.8389 33.902C91.4609 33.692 91.1739 33.4143 90.9779 33.069C90.7865 32.7237 90.6909 32.3433 90.6909 31.928C90.6909 31.564 90.7515 31.2373 90.8729 30.948C90.9942 30.654 91.1809 30.402 91.4329 30.192C91.6849 29.9773 92.0115 29.8023 92.4129 29.667C92.7162 29.569 93.0709 29.4803 93.4769 29.401C93.8875 29.3217 94.3309 29.2493 94.8069 29.184C95.2875 29.114 95.7892 29.0393 96.3119 28.96L95.7099 29.303C95.7145 28.7803 95.5979 28.3953 95.3599 28.148C95.1219 27.9007 94.7205 27.777 94.1559 27.777C93.8152 27.777 93.4862 27.8563 93.1689 28.015C92.8515 28.1737 92.6299 28.4467 92.5039 28.834L90.9639 28.351C91.1505 27.7117 91.5052 27.1983 92.0279 26.811C92.5552 26.4237 93.2645 26.23 94.1559 26.23C94.8279 26.23 95.4182 26.3397 95.9269 26.559C96.4402 26.7783 96.8205 27.1377 97.0679 27.637C97.2032 27.903 97.2849 28.176 97.3129 28.456C97.3409 28.7313 97.3549 29.0323 97.3549 29.359V34H95.8779V32.362L96.1229 32.628C95.7822 33.174 95.3832 33.5753 94.9259 33.832C94.4732 34.084 93.9062 34.21 93.2249 34.21ZM93.5609 32.866C93.9435 32.866 94.2702 32.7983 94.5409 32.663C94.8115 32.5277 95.0262 32.362 95.1849 32.166C95.3482 31.97 95.4579 31.7857 95.5139 31.613C95.6025 31.3983 95.6515 31.1533 95.6609 30.878C95.6749 30.598 95.6819 30.3717 95.6819 30.199L96.1999 30.353C95.6912 30.4323 95.2549 30.5023 94.8909 30.563C94.5269 30.6237 94.2142 30.682 93.9529 30.738C93.6915 30.7893 93.4605 30.8477 93.2599 30.913C93.0639 30.983 92.8982 31.0647 92.7629 31.158C92.6275 31.2513 92.5225 31.3587 92.4479 31.48C92.3779 31.6013 92.3429 31.7437 92.3429 31.907C92.3429 32.0937 92.3895 32.2593 92.4829 32.404C92.5762 32.544 92.7115 32.656 92.8889 32.74C93.0709 32.824 93.2949 32.866 93.5609 32.866ZM101.074 34V27.938H98.5473V26.44H105.288V27.938H102.761V34H101.074ZM110.052 34.21C109.286 34.21 108.614 34.0443 108.036 33.713C107.457 33.3817 107.004 32.922 106.678 32.334C106.356 31.746 106.195 31.0693 106.195 30.304C106.195 29.478 106.353 28.7617 106.671 28.155C106.988 27.5437 107.429 27.07 107.994 26.734C108.558 26.398 109.212 26.23 109.954 26.23C110.738 26.23 111.403 26.4143 111.949 26.783C112.499 27.147 112.908 27.6627 113.174 28.33C113.44 28.9973 113.54 29.7837 113.475 30.689H111.802V30.073C111.797 29.2517 111.652 28.652 111.368 28.274C111.083 27.896 110.635 27.707 110.024 27.707C109.333 27.707 108.82 27.9217 108.484 28.351C108.148 28.7757 107.98 29.3987 107.98 30.22C107.98 30.9853 108.148 31.578 108.484 31.998C108.82 32.418 109.31 32.628 109.954 32.628C110.369 32.628 110.726 32.537 111.025 32.355C111.328 32.1683 111.561 31.9 111.725 31.55L113.391 32.054C113.101 32.7353 112.653 33.265 112.047 33.643C111.445 34.021 110.78 34.21 110.052 34.21ZM107.448 30.689V29.415H112.649V30.689H107.448ZM118.67 34.21C117.932 34.21 117.314 34.035 116.815 33.685C116.315 33.335 115.94 32.859 115.688 32.257C115.436 31.6503 115.31 30.9713 115.31 30.22C115.31 29.4593 115.436 28.778 115.688 28.176C115.94 27.574 116.308 27.1003 116.794 26.755C117.284 26.405 117.888 26.23 118.607 26.23C119.321 26.23 119.939 26.405 120.462 26.755C120.989 27.1003 121.397 27.574 121.687 28.176C121.976 28.7733 122.121 29.4547 122.121 30.22C122.121 30.976 121.978 31.655 121.694 32.257C121.409 32.859 121.008 33.335 120.49 33.685C119.972 34.035 119.365 34.21 118.67 34.21ZM115.023 37.36V26.44H116.514V31.746H116.724V37.36H115.023ZM118.411 32.698C118.849 32.698 119.211 32.5883 119.496 32.369C119.78 32.1497 119.99 31.8533 120.126 31.48C120.266 31.102 120.336 30.682 120.336 30.22C120.336 29.7627 120.266 29.3473 120.126 28.974C119.986 28.596 119.769 28.2973 119.475 28.078C119.181 27.854 118.807 27.742 118.355 27.742C117.925 27.742 117.575 27.847 117.305 28.057C117.034 28.2623 116.833 28.5517 116.703 28.925C116.577 29.2937 116.514 29.7253 116.514 30.22C116.514 30.71 116.577 31.1417 116.703 31.515C116.833 31.8883 117.036 32.18 117.312 32.39C117.592 32.5953 117.958 32.698 118.411 32.698ZM123.804 25.292V23.745H125.491V25.292H123.804ZM123.804 34V26.44H125.491V34H123.804ZM129.701 34.21C129.155 34.21 128.693 34.1073 128.315 33.902C127.937 33.692 127.65 33.4143 127.454 33.069C127.263 32.7237 127.167 32.3433 127.167 31.928C127.167 31.564 127.228 31.2373 127.349 30.948C127.471 30.654 127.657 30.402 127.909 30.192C128.161 29.9773 128.488 29.8023 128.889 29.667C129.193 29.569 129.547 29.4803 129.953 29.401C130.364 29.3217 130.807 29.2493 131.283 29.184C131.764 29.114 132.266 29.0393 132.788 28.96L132.186 29.303C132.191 28.7803 132.074 28.3953 131.836 28.148C131.598 27.9007 131.197 27.777 130.632 27.777C130.292 27.777 129.963 27.8563 129.645 28.015C129.328 28.1737 129.106 28.4467 128.98 28.834L127.44 28.351C127.627 27.7117 127.982 27.1983 128.504 26.811C129.032 26.4237 129.741 26.23 130.632 26.23C131.304 26.23 131.895 26.3397 132.403 26.559C132.917 26.7783 133.297 27.1377 133.544 27.637C133.68 27.903 133.761 28.176 133.789 28.456C133.817 28.7313 133.831 29.0323 133.831 29.359V34H132.354V32.362L132.599 32.628C132.259 33.174 131.86 33.5753 131.402 33.832C130.95 34.084 130.383 34.21 129.701 34.21ZM130.037 32.866C130.42 32.866 130.747 32.7983 131.017 32.663C131.288 32.5277 131.503 32.362 131.661 32.166C131.825 31.97 131.934 31.7857 131.99 31.613C132.079 31.3983 132.128 31.1533 132.137 30.878C132.151 30.598 132.158 30.3717 132.158 30.199L132.676 30.353C132.168 30.4323 131.731 30.5023 131.367 30.563C131.003 30.6237 130.691 30.682 130.429 30.738C130.168 30.7893 129.937 30.8477 129.736 30.913C129.54 30.983 129.375 31.0647 129.239 31.158C129.104 31.2513 128.999 31.3587 128.924 31.48C128.854 31.6013 128.819 31.7437 128.819 31.907C128.819 32.0937 128.866 32.2593 128.959 32.404C129.053 32.544 129.188 32.656 129.365 32.74C129.547 32.824 129.771 32.866 130.037 32.866ZM134.954 34V32.586C135.229 32.6373 135.441 32.6327 135.591 32.572C135.74 32.5067 135.852 32.3853 135.927 32.208C136.001 32.0307 136.067 31.795 136.123 31.501C136.197 31.0857 136.263 30.6073 136.319 30.066C136.379 29.5247 136.431 28.946 136.473 28.33C136.519 27.714 136.561 27.084 136.599 26.44H142.164V34H140.484V28.022H138.083C138.059 28.3253 138.031 28.666 137.999 29.044C137.966 29.4173 137.931 29.7953 137.894 30.178C137.856 30.5607 137.814 30.9247 137.768 31.27C137.726 31.6107 137.681 31.9023 137.635 32.145C137.527 32.691 137.373 33.1227 137.173 33.44C136.977 33.7573 136.701 33.9603 136.347 34.049C135.992 34.1423 135.528 34.126 134.954 34ZM144.27 25.292V23.745H145.957V25.292H144.27ZM144.27 34V26.44H145.957V34H144.27ZM148.04 34V26.44H151.477C151.725 26.44 151.956 26.454 152.17 26.482C152.385 26.51 152.569 26.545 152.723 26.587C153.087 26.6943 153.409 26.9043 153.689 27.217C153.969 27.525 154.109 27.952 154.109 28.498C154.109 28.82 154.058 29.086 153.955 29.296C153.853 29.5013 153.717 29.674 153.549 29.814C153.47 29.8793 153.388 29.9353 153.304 29.982C153.22 30.0287 153.136 30.066 153.052 30.094C153.234 30.122 153.407 30.1757 153.57 30.255C153.827 30.381 154.042 30.5677 154.214 30.815C154.392 31.0623 154.48 31.41 154.48 31.858C154.48 32.3667 154.357 32.796 154.109 33.146C153.867 33.4913 153.51 33.7317 153.038 33.867C152.866 33.9137 152.667 33.9487 152.443 33.972C152.219 33.9907 151.991 34 151.757 34H148.04ZM149.748 32.698H151.638C151.736 32.698 151.844 32.6887 151.96 32.67C152.077 32.6513 152.182 32.6257 152.275 32.593C152.443 32.5323 152.565 32.425 152.639 32.271C152.719 32.117 152.758 31.956 152.758 31.788C152.758 31.5593 152.7 31.3773 152.583 31.242C152.471 31.102 152.336 31.0087 152.177 30.962C152.084 30.9247 151.981 30.9037 151.869 30.899C151.762 30.8897 151.673 30.885 151.603 30.885H149.748V32.698ZM149.748 29.562H151.148C151.293 29.562 151.433 29.555 151.568 29.541C151.708 29.5223 151.825 29.492 151.918 29.45C152.072 29.3893 152.184 29.2867 152.254 29.142C152.329 28.9973 152.366 28.8363 152.366 28.659C152.366 28.4723 152.324 28.3043 152.24 28.155C152.161 28.001 152.033 27.8983 151.855 27.847C151.739 27.8003 151.596 27.7747 151.428 27.77C151.265 27.7653 151.16 27.763 151.113 27.763H149.748V29.562ZM160.574 34V27.938H158.047V26.44H164.788V27.938H162.261V34H160.574ZM168.051 34.21C167.505 34.21 167.043 34.1073 166.665 33.902C166.287 33.692 166 33.4143 165.804 33.069C165.613 32.7237 165.517 32.3433 165.517 31.928C165.517 31.564 165.578 31.2373 165.699 30.948C165.82 30.654 166.007 30.402 166.259 30.192C166.511 29.9773 166.838 29.8023 167.239 29.667C167.542 29.569 167.897 29.4803 168.303 29.401C168.714 29.3217 169.157 29.2493 169.633 29.184C170.114 29.114 170.615 29.0393 171.138 28.96L170.536 29.303C170.541 28.7803 170.424 28.3953 170.186 28.148C169.948 27.9007 169.547 27.777 168.982 27.777C168.641 27.777 168.312 27.8563 167.995 28.015C167.678 28.1737 167.456 28.4467 167.33 28.834L165.79 28.351C165.977 27.7117 166.331 27.1983 166.854 26.811C167.381 26.4237 168.091 26.23 168.982 26.23C169.654 26.23 170.244 26.3397 170.753 26.559C171.266 26.7783 171.647 27.1377 171.894 27.637C172.029 27.903 172.111 28.176 172.139 28.456C172.167 28.7313 172.181 29.0323 172.181 29.359V34H170.704V32.362L170.949 32.628C170.608 33.174 170.209 33.5753 169.752 33.832C169.299 34.084 168.732 34.21 168.051 34.21ZM168.387 32.866C168.77 32.866 169.096 32.7983 169.367 32.663C169.638 32.5277 169.852 32.362 170.011 32.166C170.174 31.97 170.284 31.7857 170.34 31.613C170.429 31.3983 170.478 31.1533 170.487 30.878C170.501 30.598 170.508 30.3717 170.508 30.199L171.026 30.353C170.517 30.4323 170.081 30.5023 169.717 30.563C169.353 30.6237 169.04 30.682 168.779 30.738C168.518 30.7893 168.287 30.8477 168.086 30.913C167.89 30.983 167.724 31.0647 167.589 31.158C167.454 31.2513 167.349 31.3587 167.274 31.48C167.204 31.6013 167.169 31.7437 167.169 31.907C167.169 32.0937 167.216 32.2593 167.309 32.404C167.402 32.544 167.538 32.656 167.715 32.74C167.897 32.824 168.121 32.866 168.387 32.866ZM176.792 34V26.44H183.358V34H181.671V28.022H178.479V34H176.792ZM188.663 34.21C187.907 34.21 187.246 34.0397 186.682 33.699C186.117 33.3583 185.678 32.8893 185.366 32.292C185.058 31.69 184.904 30.9993 184.904 30.22C184.904 29.4267 185.062 28.7313 185.38 28.134C185.697 27.5367 186.138 27.07 186.703 26.734C187.267 26.398 187.921 26.23 188.663 26.23C189.423 26.23 190.086 26.4003 190.651 26.741C191.215 27.0817 191.654 27.553 191.967 28.155C192.279 28.7523 192.436 29.4407 192.436 30.22C192.436 31.004 192.277 31.697 191.96 32.299C191.647 32.8963 191.208 33.3653 190.644 33.706C190.079 34.042 189.419 34.21 188.663 34.21ZM188.663 32.628C189.335 32.628 189.834 32.404 190.161 31.956C190.487 31.508 190.651 30.9293 190.651 30.22C190.651 29.4873 190.485 28.904 190.154 28.47C189.822 28.0313 189.325 27.812 188.663 27.812C188.21 27.812 187.837 27.9147 187.543 28.12C187.253 28.3207 187.039 28.603 186.899 28.967C186.759 29.3263 186.689 29.744 186.689 30.22C186.689 30.9527 186.854 31.5383 187.186 31.977C187.522 32.411 188.014 32.628 188.663 32.628ZM197.611 34.21C196.874 34.21 196.255 34.035 195.756 33.685C195.257 33.335 194.881 32.859 194.629 32.257C194.377 31.6503 194.251 30.9713 194.251 30.22C194.251 29.4593 194.377 28.778 194.629 28.176C194.881 27.574 195.25 27.1003 195.735 26.755C196.225 26.405 196.829 26.23 197.548 26.23C198.262 26.23 198.88 26.405 199.403 26.755C199.93 27.1003 200.339 27.574 200.628 28.176C200.917 28.7733 201.062 29.4547 201.062 30.22C201.062 30.976 200.92 31.655 200.635 32.257C200.35 32.859 199.949 33.335 199.431 33.685C198.913 34.035 198.306 34.21 197.611 34.21ZM193.964 37.36V26.44H195.455V31.746H195.665V37.36H193.964ZM197.352 32.698C197.791 32.698 198.152 32.5883 198.437 32.369C198.722 32.1497 198.932 31.8533 199.067 31.48C199.207 31.102 199.277 30.682 199.277 30.22C199.277 29.7627 199.207 29.3473 199.067 28.974C198.927 28.596 198.71 28.2973 198.416 28.078C198.122 27.854 197.749 27.742 197.296 27.742C196.867 27.742 196.517 27.847 196.246 28.057C195.975 28.2623 195.775 28.5517 195.644 28.925C195.518 29.2937 195.455 29.7253 195.455 30.22C195.455 30.71 195.518 31.1417 195.644 31.515C195.775 31.8883 195.978 32.18 196.253 32.39C196.533 32.5953 196.899 32.698 197.352 32.698ZM205.944 34.21C205.188 34.21 204.528 34.0397 203.963 33.699C203.398 33.3583 202.96 32.8893 202.647 32.292C202.339 31.69 202.185 30.9993 202.185 30.22C202.185 29.4267 202.344 28.7313 202.661 28.134C202.978 27.5367 203.419 27.07 203.984 26.734C204.549 26.398 205.202 26.23 205.944 26.23C206.705 26.23 207.367 26.4003 207.932 26.741C208.497 27.0817 208.935 27.553 209.248 28.155C209.561 28.7523 209.717 29.4407 209.717 30.22C209.717 31.004 209.558 31.697 209.241 32.299C208.928 32.8963 208.49 33.3653 207.925 33.706C207.36 34.042 206.7 34.21 205.944 34.21ZM205.944 32.628C206.616 32.628 207.115 32.404 207.442 31.956C207.769 31.508 207.932 30.9293 207.932 30.22C207.932 29.4873 207.766 28.904 207.435 28.47C207.104 28.0313 206.607 27.812 205.944 27.812C205.491 27.812 205.118 27.9147 204.824 28.12C204.535 28.3207 204.32 28.603 204.18 28.967C204.04 29.3263 203.97 29.744 203.97 30.22C203.97 30.9527 204.136 31.5383 204.467 31.977C204.803 32.411 205.295 32.628 205.944 32.628ZM211.245 34V26.44H212.862V32.502H214.997V26.44H216.614V32.502H218.749V26.44H220.366V34H211.245ZM222.306 34L222.32 26.44H224.028V30.08L226.793 26.44H228.9L225.967 30.22L229.152 34H226.919L224.028 30.36V34H222.306ZM233.055 34.21C232.299 34.21 231.639 34.0397 231.074 33.699C230.51 33.3583 230.071 32.8893 229.758 32.292C229.45 31.69 229.296 30.9993 229.296 30.22C229.296 29.4267 229.455 28.7313 229.772 28.134C230.09 27.5367 230.531 27.07 231.095 26.734C231.66 26.398 232.313 26.23 233.055 26.23C233.816 26.23 234.479 26.4003 235.043 26.741C235.608 27.0817 236.047 27.553 236.359 28.155C236.672 28.7523 236.828 29.4407 236.828 30.22C236.828 31.004 236.67 31.697 236.352 32.299C236.04 32.8963 235.601 33.3653 235.036 33.706C234.472 34.042 233.811 34.21 233.055 34.21ZM233.055 32.628C233.727 32.628 234.227 32.404 234.553 31.956C234.88 31.508 235.043 30.9293 235.043 30.22C235.043 29.4873 234.878 28.904 234.546 28.47C234.215 28.0313 233.718 27.812 233.055 27.812C232.603 27.812 232.229 27.9147 231.935 28.12C231.646 28.3207 231.431 28.603 231.291 28.967C231.151 29.3263 231.081 29.744 231.081 30.22C231.081 30.9527 231.247 31.5383 231.578 31.977C231.914 32.411 232.407 32.628 233.055 32.628ZM238.357 34V26.44H241.794C242.041 26.44 242.272 26.454 242.487 26.482C242.701 26.51 242.886 26.545 243.04 26.587C243.404 26.6943 243.726 26.9043 244.006 27.217C244.286 27.525 244.426 27.952 244.426 28.498C244.426 28.82 244.374 29.086 244.272 29.296C244.169 29.5013 244.034 29.674 243.866 29.814C243.786 29.8793 243.705 29.9353 243.621 29.982C243.537 30.0287 243.453 30.066 243.369 30.094C243.551 30.122 243.723 30.1757 243.887 30.255C244.143 30.381 244.358 30.5677 244.531 30.815C244.708 31.0623 244.797 31.41 244.797 31.858C244.797 32.3667 244.673 32.796 244.426 33.146C244.183 33.4913 243.826 33.7317 243.355 33.867C243.182 33.9137 242.984 33.9487 242.76 33.972C242.536 33.9907 242.307 34 242.074 34H238.357ZM240.065 32.698H241.955C242.053 32.698 242.16 32.6887 242.277 32.67C242.393 32.6513 242.498 32.6257 242.592 32.593C242.76 32.5323 242.881 32.425 242.956 32.271C243.035 32.117 243.075 31.956 243.075 31.788C243.075 31.5593 243.016 31.3773 242.9 31.242C242.788 31.102 242.652 31.0087 242.494 30.962C242.4 30.9247 242.298 30.9037 242.186 30.899C242.078 30.8897 241.99 30.885 241.92 30.885H240.065V32.698ZM240.065 29.562H241.465C241.609 29.562 241.749 29.555 241.885 29.541C242.025 29.5223 242.141 29.492 242.235 29.45C242.389 29.3893 242.501 29.2867 242.571 29.142C242.645 28.9973 242.683 28.8363 242.683 28.659C242.683 28.4723 242.641 28.3043 242.557 28.155C242.477 28.001 242.349 27.8983 242.172 27.847C242.055 27.8003 241.913 27.7747 241.745 27.77C241.581 27.7653 241.476 27.763 241.43 27.763H240.065V29.562ZM249.53 34.21C248.774 34.21 248.114 34.0397 247.549 33.699C246.984 33.3583 246.546 32.8893 246.233 32.292C245.925 31.69 245.771 30.9993 245.771 30.22C245.771 29.4267 245.93 28.7313 246.247 28.134C246.564 27.5367 247.005 27.07 247.57 26.734C248.135 26.398 248.788 26.23 249.53 26.23C250.291 26.23 250.953 26.4003 251.518 26.741C252.083 27.0817 252.521 27.553 252.834 28.155C253.147 28.7523 253.303 29.4407 253.303 30.22C253.303 31.004 253.144 31.697 252.827 32.299C252.514 32.8963 252.076 33.3653 251.511 33.706C250.946 34.042 250.286 34.21 249.53 34.21ZM249.53 32.628C250.202 32.628 250.701 32.404 251.028 31.956C251.355 31.508 251.518 30.9293 251.518 30.22C251.518 29.4873 251.352 28.904 251.021 28.47C250.69 28.0313 250.193 27.812 249.53 27.812C249.077 27.812 248.704 27.9147 248.41 28.12C248.121 28.3207 247.906 28.603 247.766 28.967C247.626 29.3263 247.556 29.744 247.556 30.22C247.556 30.9527 247.722 31.5383 248.053 31.977C248.389 32.411 248.881 32.628 249.53 32.628ZM256.504 25.271V23.731H258.044V25.271H256.504ZM253.613 25.271V23.731H255.153V25.271H253.613ZM254.985 34V26.44H256.672V34H254.985ZM80.966 53V45.44H82.352L85.061 50.662L87.777 45.44H89.156V53H87.546V48.835L85.397 53H84.732L82.583 48.835V53H80.966ZM94.5479 53.21C93.7825 53.21 93.1105 53.0443 92.5319 52.713C91.9532 52.3817 91.5005 51.922 91.1739 51.334C90.8519 50.746 90.6909 50.0693 90.6909 49.304C90.6909 48.478 90.8495 47.7617 91.1669 47.155C91.4842 46.5437 91.9252 46.07 92.4899 45.734C93.0545 45.398 93.7079 45.23 94.4499 45.23C95.2339 45.23 95.8989 45.4143 96.4449 45.783C96.9955 46.147 97.4039 46.6627 97.6699 47.33C97.9359 47.9973 98.0362 48.7837 97.9709 49.689H96.2979V49.073C96.2932 48.2517 96.1485 47.652 95.8639 47.274C95.5792 46.896 95.1312 46.707 94.5199 46.707C93.8292 46.707 93.3159 46.9217 92.9799 47.351C92.6439 47.7757 92.4759 48.3987 92.4759 49.22C92.4759 49.9853 92.6439 50.578 92.9799 50.998C93.3159 51.418 93.8059 51.628 94.4499 51.628C94.8652 51.628 95.2222 51.537 95.5209 51.355C95.8242 51.1683 96.0575 50.9 96.2209 50.55L97.8869 51.054C97.5975 51.7353 97.1495 52.265 96.5429 52.643C95.9409 53.021 95.2759 53.21 94.5479 53.21ZM91.9439 49.689V48.415H97.1449V49.689H91.9439ZM101.197 53V46.938H98.6703V45.44H105.411V46.938H102.884V53H101.197ZM108.674 53.21C108.128 53.21 107.666 53.1073 107.288 52.902C106.91 52.692 106.623 52.4143 106.427 52.069C106.236 51.7237 106.14 51.3433 106.14 50.928C106.14 50.564 106.201 50.2373 106.322 49.948C106.443 49.654 106.63 49.402 106.882 49.192C107.134 48.9773 107.461 48.8023 107.862 48.667C108.165 48.569 108.52 48.4803 108.926 48.401C109.337 48.3217 109.78 48.2493 110.256 48.184C110.737 48.114 111.238 48.0393 111.761 47.96L111.159 48.303C111.164 47.7803 111.047 47.3953 110.809 47.148C110.571 46.9007 110.17 46.777 109.605 46.777C109.264 46.777 108.935 46.8563 108.618 47.015C108.301 47.1737 108.079 47.4467 107.953 47.834L106.413 47.351C106.6 46.7117 106.954 46.1983 107.477 45.811C108.004 45.4237 108.714 45.23 109.605 45.23C110.277 45.23 110.867 45.3397 111.376 45.559C111.889 45.7783 112.27 46.1377 112.517 46.637C112.652 46.903 112.734 47.176 112.762 47.456C112.79 47.7313 112.804 48.0323 112.804 48.359V53H111.327V51.362L111.572 51.628C111.231 52.174 110.832 52.5753 110.375 52.832C109.922 53.084 109.355 53.21 108.674 53.21ZM109.01 51.866C109.393 51.866 109.719 51.7983 109.99 51.663C110.261 51.5277 110.475 51.362 110.634 51.166C110.797 50.97 110.907 50.7857 110.963 50.613C111.052 50.3983 111.101 50.1533 111.11 49.878C111.124 49.598 111.131 49.3717 111.131 49.199L111.649 49.353C111.14 49.4323 110.704 49.5023 110.34 49.563C109.976 49.6237 109.663 49.682 109.402 49.738C109.141 49.7893 108.91 49.8477 108.709 49.913C108.513 49.983 108.347 50.0647 108.212 50.158C108.077 50.2513 107.972 50.3587 107.897 50.48C107.827 50.6013 107.792 50.7437 107.792 50.907C107.792 51.0937 107.839 51.2593 107.932 51.404C108.025 51.544 108.161 51.656 108.338 51.74C108.52 51.824 108.744 51.866 109.01 51.866ZM113.926 53V51.586C114.202 51.6373 114.414 51.6327 114.563 51.572C114.713 51.5067 114.825 51.3853 114.899 51.208C114.974 51.0307 115.039 50.795 115.095 50.501C115.17 50.0857 115.235 49.6073 115.291 49.066C115.352 48.5247 115.403 47.946 115.445 47.33C115.492 46.714 115.534 46.084 115.571 45.44H121.136V53H119.456V47.022H117.055C117.032 47.3253 117.004 47.666 116.971 48.044C116.939 48.4173 116.904 48.7953 116.866 49.178C116.829 49.5607 116.787 49.9247 116.74 50.27C116.698 50.6107 116.654 50.9023 116.607 51.145C116.5 51.691 116.346 52.1227 116.145 52.44C115.949 52.7573 115.674 52.9603 115.319 53.049C114.965 53.1423 114.5 53.126 113.926 53ZM124.097 56.36L125.553 52.363L125.581 53.539L122.284 45.44H124.041L126.379 51.432H125.931L128.206 45.44H129.893L125.679 56.36H124.097ZM134.57 53.21C133.833 53.21 133.214 53.035 132.715 52.685C132.216 52.335 131.84 51.859 131.588 51.257C131.336 50.6503 131.21 49.9713 131.21 49.22C131.21 48.4593 131.336 47.778 131.588 47.176C131.84 46.574 132.209 46.1003 132.694 45.755C133.184 45.405 133.788 45.23 134.507 45.23C135.221 45.23 135.839 45.405 136.362 45.755C136.889 46.1003 137.298 46.574 137.587 47.176C137.876 47.7733 138.021 48.4547 138.021 49.22C138.021 49.976 137.879 50.655 137.594 51.257C137.309 51.859 136.908 52.335 136.39 52.685C135.872 53.035 135.265 53.21 134.57 53.21ZM130.923 56.36V45.44H132.414V50.746H132.624V56.36H130.923ZM134.311 51.698C134.75 51.698 135.111 51.5883 135.396 51.369C135.681 51.1497 135.891 50.8533 136.026 50.48C136.166 50.102 136.236 49.682 136.236 49.22C136.236 48.7627 136.166 48.3473 136.026 47.974C135.886 47.596 135.669 47.2973 135.375 47.078C135.081 46.854 134.708 46.742 134.255 46.742C133.826 46.742 133.476 46.847 133.205 47.057C132.934 47.2623 132.734 47.5517 132.603 47.925C132.477 48.2937 132.414 48.7253 132.414 49.22C132.414 49.71 132.477 50.1417 132.603 50.515C132.734 50.8883 132.937 51.18 133.212 51.39C133.492 51.5953 133.858 51.698 134.311 51.698ZM139.564 53V45.44H144.954V47.022H141.251V53H139.564ZM146.431 44.292V42.745H148.118V44.292H146.431ZM146.431 53V45.44H148.118V53H146.431ZM151.873 44.271V42.731H153.413V44.271H151.873ZM148.982 44.271V42.731H150.522V44.271H148.982ZM150.354 53V45.44H152.041V53H150.354Z" fill="black"/>
<circle cx="57.3633" cy="18.582" r="7.58205" fill="black"/>
<circle cx="31.9671" cy="48.2405" r="4.61749" fill="black"/>
<circle cx="22.0218" cy="5.61749" r="4.61749" fill="black"/>
<circle cx="55.055" cy="52.8577" r="4.61749" fill="black"/>
<circle cx="5.50546" cy="33.4996" r="5.50546" fill="black"/>
<circle cx="55.6" cy="15.7611" r="2.6449" fill="white"/>
<circle cx="54.1671" cy="51.9699" r="2.30874" fill="white"/>
<circle cx="3.90751" cy="31.9017" r="2.13115" fill="white"/>
<circle cx="31.0795" cy="46.9975" r="1.95355" fill="white"/>
<circle cx="21.3111" cy="3.84139" r="1.77596" fill="white"/>
<path d="M29.8363 27.2838L52.5686 20.0443M23.6205 9.34668L28.238 20.0024M36.4074 34.0325L52.391 49.6723M31.6123 44.333L30.9019 35.2756M21.4893 29.7702L6.57129 33.6773" stroke="black" stroke-width="1.77596"/>
<circle cx="30.547" cy="27.6398" r="10.4533" fill="#A431FF"/>
<circle cx="26.2872" cy="24.542" r="3.48443" fill="white"/>
</svg>
