<svg width="100" height="100" viewBox="0 0 100 100" fill="none" xmlns="http://www.w3.org/2000/svg">
<path d="M61.254 85.4518L62.2375 85.6325L61.254 85.4518C61.224 85.615 61.1904 85.7776 61.1533 85.9393C60.8736 87.1583 61.7353 88.5207 63.148 88.5207H83.3333C84.1732 88.5207 84.9786 88.8544 85.5725 89.4482C86.1664 90.0421 86.5 90.8475 86.5 91.6874C86.5 92.5272 86.1664 93.3327 85.5725 93.9266C84.9786 94.5204 84.1732 94.8541 83.3333 94.8541H16.6667C15.8268 94.8541 15.0214 94.5204 14.4275 93.9266C13.8336 93.3327 13.5 92.5272 13.5 91.6874C13.5 90.8475 13.8336 90.0421 14.4275 89.4482C15.0214 88.8544 15.8268 88.5207 16.6667 88.5207H36.845C38.262 88.5207 39.1231 87.1512 38.8382 85.9307C38.8208 85.856 38.8041 85.7812 38.7882 85.7062C38.6437 85.025 38.1638 84.4345 37.4755 84.1853C32.035 82.2158 27.1533 78.9539 23.2514 74.6796C22.8741 74.2663 22.3369 74.0207 21.7641 74.0207H16.6667C15.8268 74.0207 15.0214 73.6871 14.4275 73.0932C13.8336 72.4994 13.5 71.6939 13.5 70.8541C13.5 70.0142 13.8336 69.2088 14.4275 68.6149C15.0214 68.021 15.8268 67.6874 16.6667 67.6874H33.3333C34.1732 67.6874 34.9786 68.021 35.5725 68.6149C36.1657 69.2081 36.4992 70.0124 36.5 70.8512C36.4957 71.5151 36.2798 72.1604 35.8836 72.6933C35.8233 72.7742 35.7594 72.852 35.6922 72.9262C35.2266 73.4402 34.9751 74.1483 34.9709 74.8123C34.9668 75.4788 35.2285 76.3191 36.0608 76.7453C36.719 77.0823 37.3898 77.3944 38.0718 77.6809C39.0219 78.0802 40.0303 77.664 40.537 76.908C41.49 75.4861 42.7532 74.2941 44.2351 73.424C45.9441 72.4207 47.885 71.8803 49.8666 71.8559C51.8481 71.8315 53.8017 72.3241 55.5348 73.2851C57.0256 74.1117 58.3089 75.2603 59.2935 76.6433C59.8401 77.4111 60.9174 77.7989 61.8728 77.3028C65.9633 75.1792 69.4265 72.011 71.9063 68.1129C74.5541 63.9508 75.9731 59.1257 76 54.1928L76 54.1887C76.0077 48.136 73.8886 42.2853 70.0327 37.6497C69.2726 36.7359 67.9248 36.7317 67.1249 37.5319L49.9097 54.7552C49.9096 54.7552 49.9096 54.7553 49.9095 54.7553C49.3157 55.3489 48.5104 55.6823 47.6708 55.6823C46.8313 55.6823 46.0262 55.349 45.4324 54.7556C45.0371 54.3599 44.3965 54.3604 44.0015 54.755L44.0015 54.755L38.1181 60.6342L38.118 60.6343C37.5242 61.228 36.7189 61.5615 35.8792 61.5615C35.0395 61.5615 34.2342 61.228 33.6403 60.6343L33.6401 60.6341L24.7984 51.8008L24.7984 51.8007C24.504 51.5066 24.2704 51.1574 24.111 50.773C23.9517 50.3885 23.8696 49.9765 23.8696 49.5603C23.8696 49.1442 23.9517 48.7321 24.111 48.3477C24.2704 47.9632 24.504 47.614 24.7984 47.3199L24.7985 47.3198L29.991 42.1309C30.8019 41.3206 30.6793 40.1525 30.2308 39.4129C29.9329 38.9218 29.7717 38.3545 29.7717 37.7707C29.7717 36.9311 30.1052 36.1258 30.6988 35.532C30.6988 35.532 30.6988 35.5319 30.6989 35.5319L57.2113 9.0195L57.2124 9.01842C57.5594 8.67032 57.983 8.40815 58.4493 8.25282L58.4497 8.2527L67.283 5.30687L67.2837 5.30666C67.8418 5.12012 68.4408 5.093 69.0135 5.22833C69.5862 5.36367 70.1098 5.65611 70.5253 6.07275L70.5264 6.07384L79.3676 14.9109C79.7835 15.3271 80.0753 15.851 80.2101 16.4238C80.3449 16.9965 80.3174 17.5955 80.1308 18.1536L80.1306 18.1542L77.1806 26.9959L77.18 26.9977C77.026 27.4621 76.7654 27.8838 76.419 28.2292L76.4173 28.2308L74.444 30.2073C73.6788 30.9737 73.6754 32.1842 74.365 32.9703C79.5043 38.8295 82.344 46.3688 82.3333 54.1837C82.2898 60.633 80.3295 66.9237 76.7014 72.2561C73.1787 77.4335 68.2383 81.4803 62.4775 83.9153C61.8214 84.1926 61.3769 84.7833 61.254 85.4518ZM71.5607 23.8347L70.6121 23.518L71.5607 23.8347L73.1152 19.1781C73.3552 18.4592 73.1683 17.6665 72.6324 17.1306L68.3108 12.809C67.7751 12.2733 66.9828 12.0863 66.2641 12.3258L61.6119 13.8766C61.3173 13.9747 61.0497 14.1402 60.8301 14.3597L38.8325 36.3573C38.0521 37.1377 38.0514 38.4028 38.8308 39.1841L46.2514 46.6222C47.0324 47.405 48.3003 47.4055 49.0819 46.6235L71.0782 24.6152C71.2973 24.3959 71.4625 24.1287 71.5607 23.8347ZM50 88.5207H50.001C51.3706 88.5194 52.6837 87.9747 53.6522 87.0062C54.6206 86.0378 55.1653 84.7247 55.1667 83.3551V83.3541C55.1667 82.3322 54.8636 81.3333 54.2959 80.4836C53.7282 79.634 52.9213 78.9717 51.9772 78.5807C51.0331 78.1896 49.9943 78.0873 48.992 78.2867L49.1871 79.2674L48.992 78.2867C47.9898 78.486 47.0692 78.9781 46.3466 79.7007C45.624 80.4232 45.132 81.3438 44.9326 82.3461C44.7332 83.3483 44.8356 84.3872 45.2266 85.3313C45.6177 86.2753 46.2799 87.0823 47.1295 87.65L47.6851 86.8185L47.1296 87.65C47.9792 88.2177 48.9781 88.5207 50 88.5207ZM34.4655 52.5097C35.2467 53.2898 36.5122 53.2894 37.2929 52.5087L38.8255 50.9761C39.6062 50.1954 39.6066 48.9299 38.8265 48.1487L37.2939 46.6139C36.513 45.8319 35.2459 45.8315 34.4645 46.6129L32.9297 48.1477C32.1482 48.9291 32.1487 50.1962 32.9307 50.9771L34.4655 52.5097Z" fill="black" stroke="#F9F9F9" stroke-width="2"/>
</svg>
