<svg width="100" height="100" viewBox="0 0 100 100" fill="none" xmlns="http://www.w3.org/2000/svg">
<path d="M68.1878 46.8758C68.1906 43.4008 67.1947 39.9983 65.3186 37.0734L64.8986 36.4186L64.1606 36.6646L51.1645 40.9966L51.162 40.9974C50.4083 41.2509 49.5923 41.2509 48.8386 40.9974L48.836 40.9966L35.8399 36.6646L35.1012 36.4183L34.6814 37.0742C33.1586 39.4536 32.211 42.155 31.9138 44.9643C31.6165 47.7737 31.9777 50.6136 32.9688 53.259C33.9599 55.9044 35.5537 58.2826 37.6237 60.205C39.6937 62.1274 42.183 63.5412 44.8944 64.3343C47.6058 65.1274 50.4646 65.2779 53.2443 64.774C56.024 64.2702 58.6481 63.1257 60.9086 61.4314C63.1691 59.737 65.0038 57.5394 66.2673 55.0127C67.5306 52.4863 68.1882 49.7004 68.1878 46.8758ZM68.1878 46.8758L67.1878 46.875L68.1878 46.8748C68.1878 46.8751 68.1878 46.8755 68.1878 46.8758ZM88.6645 21.5033L88.9276 21.591C89.5497 21.8536 90.0896 22.2829 90.4862 22.8338C90.938 23.4613 91.181 24.215 91.181 24.9883C91.181 25.7615 90.938 26.5152 90.4862 27.1427C90.0345 27.7701 89.397 28.2397 88.6639 28.4851C88.6638 28.4851 88.6636 28.4852 88.6635 28.4852L73.2348 33.6294L72.1212 34.0007L72.6647 35.0411C75.4308 40.3357 76.2528 46.4325 74.9876 52.2706C73.7225 58.1086 70.4503 63.3183 65.7406 66.9928L64.4833 67.9737L65.9139 68.6783C72.1636 71.7563 77.4526 76.4846 81.2089 82.3517L81.215 82.3613L81.2214 82.3707C81.4942 82.7762 81.6837 83.2318 81.7788 83.7111C81.874 84.1905 81.8729 84.6839 81.7757 85.1628C81.6785 85.6418 81.487 86.0966 81.2125 86.5009C80.9379 86.9051 80.5857 87.2508 80.1764 87.5178C79.7671 87.7848 79.3088 87.9677 78.8282 88.056C78.3475 88.1443 77.8541 88.1362 77.3766 88.0321C76.8992 87.928 76.4471 87.7301 76.0468 87.4498C75.6465 87.1695 75.3059 86.8124 75.0448 86.3993L75.041 86.3933L75.0371 86.3873C69.2688 77.5415 60.1218 72.4375 50.0003 72.4375C39.879 72.4375 30.7312 77.5414 24.9821 86.3887L24.982 86.3886L24.9753 86.3993C24.7142 86.8124 24.3736 87.1695 23.9733 87.4498C23.573 87.7301 23.1209 87.928 22.6435 88.0321C22.166 88.1362 21.6726 88.1443 21.1919 88.056C20.7113 87.9677 20.253 87.7848 19.8437 87.5178C19.4344 87.2508 19.0822 86.9051 18.8076 86.5009C18.5331 86.0966 18.3416 85.6418 18.2444 85.1628C18.1472 84.6839 18.1461 84.1905 18.2413 83.7111C18.3364 83.2318 18.5259 82.7762 18.7987 82.3707L18.805 82.3613L18.8112 82.3517C22.5638 76.4915 27.8459 71.7675 34.0871 68.6898L35.5165 67.9849L34.2599 67.0045C29.5502 63.33 26.2781 58.1204 25.0129 52.2823C23.7478 46.4443 24.5698 40.3474 27.3358 35.0529L27.8795 34.0122L26.7656 33.6411L17.5039 30.5552L16.1878 30.1166V31.5039V56.25C16.1878 57.228 15.7993 58.1659 15.1077 58.8574C14.4162 59.549 13.4783 59.9375 12.5003 59.9375C11.5223 59.9375 10.5844 59.549 9.89282 58.8574C9.20128 58.1659 8.81278 57.228 8.81278 56.25V25V24.9739L8.81142 24.9479C8.80896 24.9008 8.80895 24.8536 8.81139 24.8065C8.85117 24.0664 9.11309 23.3554 9.56299 22.7663L8.77192 22.1621L9.56299 22.7663C10.013 22.177 10.6303 21.7371 11.3342 21.5039L11.336 21.5033L48.836 9.00335L48.8396 9.00213C49.5925 8.74799 50.408 8.74799 51.1609 9.00214L51.1645 9.00334L88.6645 21.5033ZM50.317 16.4811L50.0001 16.3754L49.6834 16.4812L27.0271 24.0515L24.1864 25.0007L27.0276 25.9486L49.6838 33.5072L50.0001 33.6127L50.3165 33.5072L72.9923 25.9487L75.8361 25.0007L72.9927 24.0514L50.317 16.4811Z" fill="black" stroke="#F9F9F9" stroke-width="2"/>
</svg>
